<?xml version="1.0" encoding="UTF-8"?>
<!-- Generated by Pixelmator Pro 3.6.3 -->
<svg width="1152" height="920" viewBox="0 0 1152 920" xmlns="http://www.w3.org/2000/svg">
    <g id="Associer">
        <g id="g1">
            <g id="g2">
                <g id="g3">
                    <path id="Trac" fill="#151515" fill-rule="evenodd" stroke="none" d="M 355.993134 331.518494 C 362.959534 323.940796 369.472565 319.404297 372.862762 323.282776 C 377.203156 328.249146 355.995148 352.591919 336.097168 397.081665 C 325.302155 421.218048 322.71283 430.886444 317.894073 448.008484 C 309.197998 478.907349 315.350464 490.720886 322.25766 511.773987 C 327.907379 506.569397 337.030304 496.865082 344.058685 506.432007 C 347.873718 511.625488 344.506012 514.682373 350.906067 545.015381 C 356.932312 573.574585 366.751617 589.930481 375.612244 599.96814 C 389.851898 616.098633 417.396515 625.746521 418.670502 634.208862 C 419.582214 640.26709 412.465332 641.000671 408.350952 658.081299 C 405.128632 671.457275 406.113251 682.112244 410.464111 688.96521 C 415.420227 696.77124 424.762238 703.043335 426.969879 711.25824 C 428.540283 717.104065 427.969513 731.331726 431.861023 735.081726 C 435.853058 738.929321 447.429718 737.281921 460.150391 736.934082 C 475.560089 736.512695 478.012695 741.740234 494.530884 772.612122 C 498.34201 779.734436 516.11731 810.195984 521.472229 815.309998 C 528.674622 822.188416 566.054932 840.089722 568.27417 840.925903 C 569.301208 825.935486 561.668152 818.37439 555.097168 801.859558 C 548.687073 785.749695 558.940125 769.943115 562.240906 762.698364 C 568.104675 749.825745 566.268921 756.946533 567.012573 724.178894 C 586.026489 686.932434 590.177368 684.665771 588.740417 667.073364 C 588.228149 660.80127 586.224426 655.760681 578.434814 649.668457 C 566.412354 640.26709 545.46875 627.21936 541.191345 625.138306 C 528.754517 619.08551 517.995117 625.420105 498.25705 611.324341 C 488.460724 604.328003 478.184601 594.306763 465.040039 599.749756 C 455.982452 603.499878 455.333221 614.174866 452.763214 615.605286 C 451.951996 616.057129 454.042694 615.625793 426.721008 613.532104 C 418.237732 612.881775 411.460236 613.7146 402.734528 602.93457 C 392.716827 590.559265 393.201172 581.829468 392.982697 575.490479 C 392.061554 548.781921 404.710785 530.748718 408.334961 527.792908 C 409.849365 526.557373 411.268341 525.959656 412.644318 526.243042 C 417.350037 527.212036 419.142365 540.081299 423.188324 542.831177 C 428.45285 546.409912 438.639465 536.906982 444.989594 563.206055 C 451.389221 550.157471 449.793304 548.158203 482.038666 504.31723 C 482.210114 504.084869 499.863434 480.297791 501.40332 478.202148 C 513.622742 461.572876 501.217438 479.12323 513.942139 460.742157 C 509.712708 461.968689 501.165985 464.966583 497.985657 461.620331 C 493.4888 456.88913 501.894135 427.470734 509.619293 421.305542 C 513.638794 418.097717 517.961609 418.217194 523.534485 422.13974 C 529.675598 426.463104 536.380676 436.985138 546.977173 439.440216 C 554.605774 441.20752 567.153564 438.764465 568.941345 435.561646 C 571.462952 431.043365 561.257324 416.52533 558.713196 412.411926 C 550.599731 399.293274 547.407043 391.871643 542.757263 390.750549 C 530.941223 387.900696 493.682739 422.395599 490.025146 423.651672 C 489.520813 423.825104 471.611053 427.559662 462.315552 412.142487 C 458.083679 405.124634 456.392303 393.092712 460.889099 386.92395 C 465.655334 380.385498 480.576202 378.067871 494.791351 373.640564 C 515.985779 367.03949 524.589111 356.364502 530.002136 356.12262 C 535.809326 355.86322 541.910034 362.964966 554.171448 373.426086 C 556.727478 365.850403 555.726868 353.643555 546.964172 344.324097 C 536.591125 333.291504 505.177429 325.891357 497.542297 322.358154 C 486.180115 317.100464 471.268219 301.047485 462.819885 296.424255 C 447.15979 287.854858 412.939209 303.643921 400.47641 309.764038 C 384.102081 317.805115 377.449066 321.62085 375.266876 318.939026 C 372.378479 315.389343 388.937256 295.90448 411.708649 274.843384 C 456.226837 233.668762 497.064941 215.286682 510.466888 209.092163 C 527.665466 201.142883 553.62616 189.711304 555.875793 195.612732 C 557.418701 199.662048 548.8255 202.921936 528.162781 214.649048 C 518.850281 219.93396 487.343658 237.098206 464.472748 263.561951 C 468.179382 261.952148 501.842682 243.779724 519.332581 248.754272 C 523.941833 250.065491 525.80719 254.288452 526.042542 255.538818 C 527.654968 264.103394 515.322632 270.861755 509.508301 287.125244 C 502.127625 307.767639 529.017944 306.415955 540.747009 307.630676 C 553.38623 308.939697 572.479065 309.927551 578.418823 336.811279 C 583.222473 358.55072 581.667053 395.596191 592.569519 397.013672 C 596.844849 397.569519 603.465881 393.09021 605.636536 373.452087 C 609.475647 338.719604 605.89093 349.725525 611.716248 338.561768 C 626.26123 310.688354 626.696106 309.67157 626.976013 305.650635 C 627.807251 293.719299 624.415955 295.070251 602.388794 282.695313 C 589.354187 275.372681 594.636169 271.209229 579.758362 248.478821 C 570.973083 251.638977 560.450562 261.127563 553.493225 255.85437 C 548.700562 252.221924 547.481934 240.865417 552.292175 235.388977 C 560.360657 226.203003 576.209167 234.070557 581.847534 236.598877 C 594.952576 230.964966 594.231323 230.722534 604.285034 236.037842 C 616.65741 242.579224 630.602661 255.7948 654.414673 259.249939 C 677.334534 262.575439 688.383789 245.908691 691.193298 244.906555 C 694.135254 243.857178 712.697205 246.883301 740.499207 254.319519 C 772.720093 262.937805 785.466309 268.81781 793.52179 269.601257 C 794.234436 260.698669 788.234802 251.884827 795.840393 247.394287 C 801.240295 244.205872 815.013123 245.227783 818.901672 245.605469 C 831.538391 246.833008 844.383057 251.281128 848.753418 252.844543 C 875.924744 262.563782 875.787292 266.77301 876.684875 265.408142 C 876.752869 265.305664 875.405884 264.250793 865.764526 256.950317 C 862.42627 254.423218 864.629456 256.042175 860.628906 253.117615 C 859.417908 252.232239 854.764648 248.784546 847.433899 243.940186 C 844.113159 241.745544 834.123413 235.134033 819.9328 227.603516 C 795.35553 214.561584 773.031433 206.579895 754.734375 201.206604 C 712.184326 188.710693 686.924438 188.283875 685.676392 188.225037 C 664.754272 187.239685 607.779236 185.399292 589.614075 192.927002 C 601.187683 198.871094 611.148987 195.019653 612.9953 199.885437 C 613.191711 200.403381 614.388306 205.220947 607.744812 205.002502 C 603.732727 204.870361 580.386597 201.852112 580.368591 192.487305 C 580.33905 177.197083 659.271301 177.694641 690.704956 180.586609 C 733.937744 184.564026 789.782166 200.130676 840.131714 230.540649 C 858.773621 241.799561 879.628845 256.810974 899.286438 275.402893 C 902.927002 278.84613 913.33252 287.780151 909.592468 291.11499 C 907.91803 292.608032 905.618042 291.234924 899.256287 287.429565 C 873.843933 272.229065 828.617065 245.801575 800.656006 254.035767 C 800.615112 259.254761 804.596619 274.223816 797.034912 277.240479 C 792.811523 278.925415 771.803894 271.138428 760.437195 267.430786 C 746.676331 262.942078 701.650391 252.072754 697.037537 252.494324 C 688.452881 253.279236 682.02832 272.039917 647.696777 265.567383 C 635.473755 263.263306 623.66925 257.871643 613.417603 250.829651 C 610.354736 248.725708 599.483398 240.393494 595.398926 240.235535 C 592.902832 240.139099 587.780823 242.673523 587.189514 242.951965 C 589.040771 248.379333 600.23114 272.968445 605.612549 276.12738 C 613.446106 280.72522 633.435059 285.565674 634.875 300.128418 C 636.104065 312.56604 621.279724 334.410767 617.891418 342.985535 C 612.466492 356.71637 615.980591 377.709473 608.345032 393.190613 C 601.147705 407.78363 589.735046 404.418396 587.91925 403.502319 C 569.327271 394.119751 578.462341 351.447327 567.478455 329.457214 C 559.382019 313.248718 545.654175 316.538757 524.467163 313.706055 C 502.470398 310.764893 500.091858 298.138184 500.280762 293.052795 C 500.81604 278.644409 516.232788 265.006409 517.85907 256.509827 C 493.652252 253.03363 468.272339 273.532898 458.38208 273.385193 C 455.081818 273.336121 454.065216 271.506348 453.816803 270.909607 C 452.871643 268.638184 455.118805 264.202271 458.40802 259.497925 C 462.623444 253.468994 469.348938 246.785156 475.622101 241.259888 C 496.235809 223.104492 499.235718 224.339111 498.70285 223.449768 C 498.637848 223.340881 487.667023 229.304199 486.118073 230.171509 C 474.430969 236.713196 466.640442 241.826965 462.292603 244.694824 C 453.220001 250.679565 446.523529 255.607422 443.412689 257.95343 C 443.35022 258.000366 436.533325 263.287415 436.472351 263.336243 L 434.06424 265.328491 L 434.061218 265.330994 L 434.061707 265.330444 L 434.058746 265.332825 L 430.40213 268.515808 C 420.629272 277.193298 403.3013 293.611389 393.574982 303.869995 C 420.183441 292.563477 444.801666 280.625549 462.483521 288.028748 C 472.70517 292.308105 488.846558 307.988281 494.032104 311.920715 C 501.29837 317.432007 508.897491 317.729797 525.873596 324.4021 C 548.117737 333.144775 561.407227 341.46167 562.373352 360.330017 C 562.612732 365.000244 562.596252 380.957275 558.076538 382.79657 C 556.888916 383.279907 555.219482 382.994019 551.915771 381.024719 C 547.671875 378.49469 534.831238 364.714844 531.187622 364.563416 C 526.814209 364.382019 519.052185 374.740601 495.758484 381.790955 C 482.0896 385.927856 470.746399 387.000977 467.745026 390.97345 C 464.992065 394.616577 465.544891 413.379517 479.4646 416.145996 C 485.328888 417.311584 486.864807 416.117981 506.296051 401.484985 C 539.954285 376.137573 546.639771 382.185791 552.780945 389.031738 C 556.426086 393.095215 576.073181 425.157043 577.342712 429.378479 C 579.238525 435.68161 575.946228 442.10321 568.513 445.134094 C 559.354492 448.868652 542.71875 447.0513 534.886658 442.63504 C 528.119751 438.819427 527.151123 434.702545 522.153992 430.404114 C 517.19635 426.138702 515.462036 427.037384 515.395081 427.047852 C 509.489777 427.987549 504.255249 453.137054 504.034393 455.437164 C 514.051086 452.259857 520.315247 450.423126 522.692322 453.434387 C 525.923645 457.528931 524.728577 459.178253 483.298157 515.30957 C 459.746033 547.21814 457.001099 555.163574 452.349823 566.114441 C 448.845154 574.36438 447.74057 576.932373 444.674255 576.937378 C 437.146057 576.94989 436.443329 554.8927 431.667145 551.881836 C 428.820221 550.086548 425.404999 552.470642 420.009033 549.858582 C 414.460571 547.172668 412.010071 539.691345 410.590057 536.995911 C 402.791046 549.734131 393.46756 576.225647 407.019409 595.845215 C 413.153625 604.725342 416.492371 604.913818 420.980652 605.512573 C 424.854706 606.029419 432.338379 606.315796 440.034973 607.048096 C 446.790955 607.691284 447.180786 608.127625 447.617615 607.940674 C 449.774323 607.015015 451.165283 595.809814 463.745026 591.599426 C 471.91095 588.866333 479.807526 589.812012 491.273682 597.130249 C 503.428589 604.887817 506.860321 610.958496 521.412781 613.189209 C 533.835083 615.093506 534.902161 613.187622 553.930603 624.66687 C 554.160461 624.805298 579.432922 640.328979 579.659302 640.472961 C 615.940186 663.609741 586.210876 703.989929 575.181519 723.102783 L 574.027466 754.941284 C 573.83606 760.228271 558.130432 780.944946 560.817505 793.801147 C 562.88623 803.696411 584.849854 838.535278 573.618591 847.780823 C 572.474548 848.7229 569.925537 849.97345 564.090698 847.803772 C 563.647888 847.638794 527.529419 829.975525 517.668213 821.875549 C 510.125092 815.679382 496.485168 792.590576 490.866791 782.360474 C 475.328156 754.069092 471.69455 747.665527 469.526367 746.209045 C 461.427429 740.772095 441.574402 751.161743 427.598633 741.359375 C 417.197571 734.063599 422.987885 722.01123 418.952911 712.537231 C 414.768463 702.713989 401.670929 696.758728 399.629181 681.689392 C 396.077576 655.478821 408.792297 638.969971 410.528595 635.343872 C 405.600433 629.736938 385.432037 619.59729 375.398834 610.431274 C 342.607208 580.472107 341.567566 532.005859 337.210754 509.985626 C 332.178833 512.354126 330.721863 514.140503 325.90799 521.082397 C 327.512634 526.485901 335.234467 549.74469 326.386963 560.712524 C 323.330292 564.501587 319.684784 563.922852 319.208252 563.823303 C 305.712402 561.009888 315.51947 526.338928 317.033173 520.798096 C 313.703156 510.780884 311.447479 503.929871 309.542725 498.505981 C 306.503113 533.542725 302.260284 627.527893 365.948395 724.300293 C 390.240265 761.211426 417.493988 787.505554 440.742676 805.595703 C 443.938507 808.082275 504.763092 856.116577 577.264771 872.072144 C 571.400024 868.620911 568.902893 866.593689 569.980957 863.809265 C 570.722717 861.893433 572.664978 861.717529 573.191284 861.623108 C 577.452637 860.858887 590.773132 865.077209 594.841614 866.237854 C 602.762146 868.497498 607.825195 869.747498 608.43103 869.3172 C 612.225159 866.62323 598.899597 838.83313 602.475769 827.860291 C 603.899658 823.490417 610.758545 816.570618 614.30481 817.223328 C 623.145447 818.851196 618.155823 847.254517 623.444336 849.095825 C 626.145325 850.036987 637.074646 837.170776 658.195251 828.840454 C 671.180847 823.718384 675.938049 826.753723 685.75238 838.950134 C 704.647278 862.431763 708.709229 859.863708 734.674438 854.634216 C 774.800354 846.552246 784.230713 853.786987 785.838623 854.638184 C 812.417603 841.4552 877.501038 813.114319 932.270447 740.873535 C 961.669861 702.095703 1004.15387 626.725586 1001.573242 528.440674 C 1001.012512 507.095154 998.27655 481.299927 995.63562 465.504852 C 991.71405 442.054779 995.692017 466.055176 990.577454 441.259979 C 987.457092 426.135712 988.486206 432.961121 984.00293 420.982697 C 975.740601 398.906433 963.799011 365.551514 930.219177 321.781311 C 916.171936 347.621826 909.786438 367.25592 899.450867 369.822449 C 893.537476 371.290405 886.443665 368.235535 885.418152 364.809387 C 883.520813 358.471741 899.699707 344.099121 896.276489 334.326599 C 893.989868 327.799194 871.76123 313.362488 867.305908 311.227722 C 856.250549 305.930054 842.284363 307.992859 837.711548 309.262512 C 827.74939 312.028503 824.387146 317.300232 813.107849 318.927734 C 804.546082 320.163208 793.291809 320.040649 770.443481 339.744263 C 747.377075 359.635742 739.060242 364.581421 738.141052 367.465332 C 737.439941 369.663513 740.607605 381.610535 743.13678 383.447266 C 744.950012 384.764282 752.875488 384.506897 754.592957 383.730652 C 756.163879 383.020935 772.188354 364.013611 783.985352 370.283264 C 784.258179 370.428711 785.732178 371.09845 786.413879 372.773804 C 787.193665 374.690613 786.336975 376.598389 786.13855 377.076721 C 781.815674 387.499268 762.154541 390.583618 761.368286 392.503906 C 761.065002 393.245667 761.966614 397.676941 768.708496 403.077881 C 772.302246 405.956787 776.487183 408.500824 778.762268 407.594727 C 784.361206 405.364075 787.363037 375.236877 793.891602 369.385132 C 796.932495 366.65918 802.248901 367.218445 806.622314 362.748596 C 814.142944 355.061462 822.691711 337.541138 831.255005 334.065491 C 832.450073 333.58075 834.752686 332.774475 837.544189 333.610352 C 847.776306 336.672791 846.763184 347.12146 845.287231 357.14325 C 843.281982 370.758057 836.34613 373.255676 827.573914 380.371521 C 821.225342 385.521484 817.995483 387.054504 825.233276 408.14151 C 833.905029 405.315552 857.099243 389.062744 862.505188 397.656982 C 866.910583 404.661865 852.178589 413.922302 844.045654 416.80777 C 828.335083 422.381622 831.472961 415.923523 817.421753 423.188843 C 803.291077 430.495087 797.161926 433.656891 785.883118 434.33609 C 770.262512 435.276245 770.378479 432.830688 760.23175 428.642761 C 731.058838 416.602814 719.689514 426.846008 711.960449 426.808472 C 706.755432 426.782959 703.546631 423.176331 701.291992 422.876404 C 698.991882 422.570587 696.733765 424.338379 689.014099 424.821777 C 690.151184 426.404083 693.912781 430.713013 693.736328 434.415588 C 693.622864 436.790192 692.766724 436.923126 692.207397 438.235138 C 688.672302 446.528992 690.91394 455.035858 685.119629 458.141144 C 676.386902 462.822418 652.273499 443.344757 640.683838 461.806793 C 632.851746 474.282593 637.744385 502.493408 665.405518 488.012451 C 694.604492 472.726166 714.330139 451.211792 730.393494 485.189941 C 737.188477 468.807678 741.903748 458.649017 749.168396 458.405579 C 754.910767 458.213623 761.680725 466.337585 761.780212 466.585449 C 761.96759 467.053772 761.852661 467.533112 761.464844 480.768127 C 790.800781 463.030823 798.316406 462.144165 806.88269 472.373779 C 814.225464 481.142944 810.143921 481.503815 816.826477 485.803711 C 822.082458 489.185455 818.2229 484.834167 821.7771 490.407959 C 825.130859 495.667511 823.217041 497.805725 841.003357 511.642517 C 845.043884 514.785828 864.358582 529.225891 865.206726 529.891052 C 893.026245 551.727783 888.887207 573.172241 902.640625 591.792847 C 908.269409 599.41394 916.167419 601.257263 938.782471 582.18042 C 945.085083 576.864441 958.28656 564.594055 963.436707 555.43396 C 968.339355 546.714233 965.518372 544.036255 961.939758 539.875854 L 929.720459 539.170105 C 929.679382 539.169128 929.669922 539.34259 929.18158 539.14209 C 928.694275 538.94165 920.503784 531.054199 914.703552 525.679199 C 907.873108 519.350098 893.981384 509.431366 889.864929 492.95755 C 887.970154 485.37439 889.810913 478.071136 894.745544 476.243866 C 903.9776 472.825623 920.719299 490.520477 934.006287 500.490662 C 957.705872 518.273499 960.515747 504.070801 973.854187 518.816284 C 976.932556 513.671753 981.473389 501.784271 987.147217 502.46048 C 993.985168 503.275696 1004.003967 534.105103 996.551208 534.804199 C 991.94397 535.236572 989.936707 520.980469 986.359497 512.206787 C 982.709412 517.664246 979.020813 527.226624 974.042664 527.578918 C 970.738403 527.812927 968.841125 524.855957 965.596863 521.594238 C 958.895874 514.8573 952.065491 522.53894 930.820435 507.54007 C 914.972961 496.351807 901.554016 480.728149 897.473999 484.044373 C 895.330811 485.787231 898.767578 496.45166 903.152466 503.272156 C 908.547363 511.663971 904.388428 504.861572 932.213928 531.925415 L 963.364685 532.598511 C 963.374146 532.599121 963.50824 532.659546 963.84552 532.782593 C 964.71521 533.100403 979.887512 540.263184 970.676514 557.908569 C 962.453979 573.660522 938.442078 593.430664 928.765259 599.141968 C 919.00592 604.902283 911.320374 605.995361 904.807312 603.110046 C 891.947693 597.413208 889.067688 582.521729 879.995605 561.219788 C 870.431702 538.763794 849.535095 526.982666 846.049377 524.611633 C 820.45105 507.197662 818.102478 501.468353 815.083557 494.394012 C 815.021667 495.45517 814.932617 493.878174 814.932617 502.108002 C 848.52356 536.953003 853.646545 542.726318 859.46991 558.22644 C 864.968262 572.862915 860.364502 572.759521 889.045166 593.83551 C 904.390442 605.111755 906.735046 608.52594 907.07196 611.66272 C 908.389893 623.945618 881.727966 636.802795 871.523315 642.577637 C 868.070129 644.531372 857.22821 649.809387 846.33374 658.420654 C 835.848755 666.708557 827.445374 679.641113 827.315063 693.718872 C 831.000122 689.305542 845.328247 666.173706 857.863892 661.213135 C 861.077332 659.94165 866.744629 658.971436 869.997864 661.813416 C 874.009399 665.317505 873.557556 672.662842 866.052917 684.520264 C 852.045654 706.653503 836.119629 710.144165 833.263733 709.487366 C 832.465088 709.302979 832.85791 709.675842 830.115479 707.711121 C 816.899963 725.780762 814.109985 745.010986 814.005554 745.359375 C 812.72406 749.626709 795.244141 778.747803 792.960999 781.435791 C 780.348694 796.283691 764.063354 785.586731 760.27124 782.646851 C 748.95697 773.87561 750.543457 769.338379 751.591492 746.654907 C 740.5047 725.278931 738.736816 721.974182 738.665405 721.734802 C 738.240601 720.309875 737.894165 705.468445 738.343567 697.831299 C 738.645447 692.69574 741.257935 673.314026 740.624634 671.00592 C 739.729553 667.744629 731.731506 660.65332 731.532593 656.750793 C 731.329712 652.754272 738.000183 644.446899 738.644409 637.56604 C 737.431335 633.739502 731.661011 624.044678 717.239441 616.39856 C 700.995605 627.081421 685.468018 641.184692 666.083252 626.146301 C 639.443359 605.480103 636.155579 579.811768 638.096313 553.11792 C 639.093933 539.399048 647.492798 511.023773 676.203979 501.109985 C 701.147583 492.496735 717.660767 498.981781 742.717407 506.26001 C 750.137573 497.844208 750.608887 496.609619 757.615784 495.646057 C 775.462524 493.192413 782.937744 498.579437 805.193848 484.637695 C 802.718262 479.096771 799.903259 475.616547 798.968689 475.112244 C 790.089478 470.325592 767.336609 487.025238 761.683228 489.086029 C 756.844055 490.849304 753.512329 488.996979 753.064941 488.371765 C 751.98291 486.858795 754.770325 473.795227 753.591858 470.181091 C 752.771118 467.665558 750.586914 466.324097 749.566284 465.54837 C 742.140137 472.159882 740.136902 482.753845 735.181213 493.089417 C 734.071655 495.404144 732.651245 498.520905 729.74176 498.53949 C 721.419983 498.592926 724.352295 473.012054 708.0224 475.398621 C 693.875366 477.465851 670.352112 496.628174 659.90509 499.044281 C 655.946533 499.9599 636.583923 501.889679 630.806091 484.236786 C 625.371582 467.633118 637.023254 450.604492 645.993774 447.112305 C 658.301208 442.321625 678.554138 452.630737 681.16864 450.883362 C 682.30658 450.122711 684.637817 436.762756 685.023132 434.20517 C 682.056702 425.389526 667.827637 414.391663 673.710876 396.374939 C 673.885803 395.839661 675.007874 391.945557 678.162292 390.920532 C 682.064331 389.651917 685.576416 393.623474 686.079773 394.140747 C 697.282532 405.646484 690.869385 414.331116 689.265991 417.233124 C 694.114746 416.688782 694.081238 416.269958 696.025024 415.440216 C 690.670044 397.522522 684.677734 375.80127 692.360352 370.828552 C 695.085876 369.064758 698.21814 370.200256 698.267639 370.219299 C 701.463501 371.471375 703.702576 376.67981 706.858948 381.326111 C 713.910767 391.707153 721.197021 397.812439 721.648376 401.195068 C 722.047668 404.191528 717.450928 411.465302 713.596924 415.243835 C 709.294434 419.461243 708.438354 417.594971 709.096558 418.735046 C 710.267639 420.763214 722.044189 414.5401 731.616089 414.509094 C 752.436646 414.442108 768.355225 426.406097 779.290588 427.109375 C 794.761292 428.103912 813.984985 415.830078 817.860535 413.097656 C 814.076477 397.154602 810.916687 390.110779 816.12323 381.902405 C 823.666382 370.009399 833.345764 370.136841 836.889893 360.398499 C 838.520813 355.917664 840.146606 342.545227 835.63739 341.280212 C 831.513916 340.124146 827.121094 348.92334 814.996643 364.518982 C 805.295776 376.996704 803.982788 372.112061 799.854858 374.683105 C 792.592041 379.206421 793.80365 410.355164 781.889587 414.577057 C 775.013245 417.01413 766.772339 411.018951 764.929993 409.683929 C 752.739075 400.848755 753.78125 394.02832 752.690125 393.045227 C 750.316528 390.908508 733.431396 395.063416 730.931763 374.26178 C 729.308472 360.74939 731.643066 361.199219 749.661804 347.182007 C 765.682251 334.718872 782.262878 316.69165 802.665771 312.339966 C 811.131653 310.534302 810.054504 313.079712 820.274109 308.444641 C 831.93573 303.155518 835.113037 300.645813 837.344177 300.205261 C 837.762573 300.12262 860.716858 300.081665 861.344727 300.205566 C 864.393494 300.807129 880.016602 309.272888 889.996399 317.171509 C 899.602722 324.774841 905.782959 330.742126 904.802246 338.850647 C 903.767639 347.405884 896.079102 355.423889 893.872375 362.6651 C 901.958374 363.298889 904.718323 355.693298 918.962402 327.190918 C 921.734375 321.644897 925.717407 312.056885 930.406128 312.527527 C 935.918091 313.080933 955.217773 343.957214 958.47052 349.183228 C 1002.314514 419.618134 1007.476624 487.434601 1008.164795 509.847107 C 1009.842712 564.505615 1007.595581 591.362427 995.335205 632.216003 C 987.815002 657.275146 975.439209 687.906555 956.460815 718.839355 C 916.356934 784.203796 860.053101 821.863525 843.948181 832.264648 C 818.179993 848.90686 793.737122 859.172485 781.821167 866.952637 C 768.387207 875.724243 748.585693 886.284302 709.555908 892.978821 C 688.677185 896.560425 629.686462 899.928589 638.928955 884.457458 C 641.913879 879.461304 656.574829 880.232544 680.712769 878.276306 C 712.867126 875.670776 740.699646 870.598694 772.91803 858.67218 C 739.092285 859.044067 724.452209 867.790222 708.18689 865.138245 C 689.227051 862.047913 680.936157 841.8255 670.607056 834.375854 C 663.113892 834.316895 650.172729 840.597473 639.686768 847.831238 C 634.696594 851.273987 627.51178 857.686523 624.071594 857.627014 C 621.427124 857.581604 618.12738 854.243408 617.2771 853.32666 C 609.959961 845.439636 614.269775 841.221252 611.90271 826.664734 C 603.29895 838.108948 624.4245 865.534607 615.096436 874.639709 C 612.854797 876.827332 609.055237 877.336182 603.314392 876.607361 C 603.532898 876.827332 605.653564 877.992371 605.235718 880.233032 C 603.334412 890.42926 528.343689 872.872803 458.861389 827.520447 C 413.504456 797.914551 388.165039 767.289612 374.409698 749.505371 C 348.89679 716.51825 332.84082 684.421875 322.1875 655.143921 C 317.738495 642.917053 294.713745 578.837646 301.5867 502.450958 C 305.703796 456.699188 302.071198 474.901825 305.3414 440.674255 C 306.984497 423.478699 314.698273 395.659241 332.544861 364.408936 C 337.329681 356.032104 347.036499 341.261719 355.993134 331.518494 Z M 685.14209 407.777161 C 685.101624 405.792908 683.812073 403.446777 680.629761 399.84314 C 680.473328 400.560852 678.549072 404.890747 682.15863 413.539001 C 683.973022 411.383301 685.182617 409.761353 685.14209 407.777161 Z M 849.324219 405.647888 C 849.286255 405.574463 840.879944 409.579987 840.912842 409.655945 C 841.045288 409.959808 849.438171 405.868835 849.324219 405.647888 Z M 768.643127 381.256165 C 768.851013 381.681519 774.672302 378.273743 775.416077 377.806458 C 774.553345 378.194824 768.525146 381.013184 768.643127 381.256165 Z M 750.306519 874.270752 C 750.195068 873.902954 751.051697 874.510254 729.300964 879.323853 C 714.853882 882.520691 706.474548 883.621765 699.191711 884.45697 C 677.42395 886.952515 661.629944 886.809631 649.533508 888.169067 C 664.385376 889.040222 687.952576 887.79718 698.022278 886.666138 C 708.095947 885.534546 720.261292 882.938538 729.127991 880.674377 C 734.844788 879.214417 750.421021 874.647156 750.306519 874.270752 Z M 320.400391 548.880005 C 320.451691 552.825928 320.712189 555.302612 320.729919 555.497986 C 321.606079 553.854065 324.267456 549.354736 321.330261 533.447266 C 320.507843 539.519531 320.349182 544.934448 320.400391 548.880005 Z M 573.55719 241.144226 C 567.439453 237.334045 560.219666 237.767578 557.823608 241.715332 C 556.144714 244.481567 557.40979 248.76062 557.947571 249.143555 C 559.345032 250.138 568.929443 246.622864 573.55719 241.144226 Z M 713.289001 402.455139 C 712.949585 399.463318 706.886902 396.741272 697.261047 380.608398 C 696.871155 391.540222 699.926453 405.038696 703.890991 411.048889 C 713.200562 408.202515 713.327393 402.79248 713.289001 402.455139 Z M 354.592194 344.581482 C 354.314301 344.396057 344.545959 358.877075 343.817749 359.999146 C 338.175873 368.688416 335.628296 373.79541 335.561371 373.922852 C 331.87619 380.911255 328.292328 388.743835 324.886688 397.370544 C 319.679901 410.560089 312.980774 430.283691 311.251678 447.866028 C 314.415771 436.506348 318.255859 419.280823 328.594971 395.378845 C 335.080048 380.385986 342.676666 366.060364 342.812134 365.802002 C 346.057404 359.591309 348.988281 354.266357 349.413147 353.508606 C 353.98642 345.344604 354.668671 344.632385 354.592194 344.581482 Z M 823.490479 675.366821 C 825.230286 671.545776 827.697876 667.406738 831.124084 662.97699 C 840.509521 650.844055 848.604431 646.637634 872.849854 632.768311 C 899.18689 617.702026 898.244751 616.162109 899.251404 613.268677 C 896.094116 605.374634 876.602905 596.080688 864.36908 583.981201 C 851.847229 571.5979 856.264587 562.361938 842.817688 543.858398 C 833.66156 531.259521 813.257263 511.662048 807.724915 505.076996 C 807.389038 495.77948 808.087646 499.670044 807.14209 493.957672 C 785.874634 500.158356 807.421448 499.877472 754.997742 503.588531 C 745.589844 514.407959 746.117188 514.01709 745.379822 514.221558 C 745.023499 514.320435 744.650208 514.21051 744.643616 514.210999 C 742.948303 514.335571 741.927185 513.075439 718.253662 507.114136 C 690.326172 500.082336 654.140747 510.227509 646.863525 543.210571 C 645.445068 549.63916 642.561096 574.631714 650.607605 594.149902 C 655.337769 605.624512 669.261108 623.831177 681.418457 625.047791 C 696.207886 626.52771 708.745667 606.706665 720.387817 609.917969 C 728.861145 612.255005 742.902832 627.389404 744.638184 630.641602 C 750.19458 641.056152 739.111267 652.022583 740.162292 656.29248 C 742.000671 663.758606 751.185669 654.897522 746.717834 688.909668 C 744.525146 705.603882 745.782288 718.148682 747.524597 722.426025 C 749.634277 727.606079 757.064453 738.046631 757.486877 739.3797 C 757.835205 740.479736 757.923706 757.985657 758.921814 765.302856 C 761.124939 781.456787 777.910095 783.679443 783.76001 779.598938 C 789.026917 775.924927 804.942505 747.744019 805.973999 744.800049 C 809.346252 735.180237 802.082947 746.167603 822.956177 704.995117 C 822.069519 702.521545 815.950806 691.925049 823.490479 675.366821 Z M 832.695984 701.817322 C 833.229736 701.968262 837.047852 705.929749 850.80365 691.583679 C 857.278259 684.831665 863.94812 676.019531 864.93634 668.184998 C 853.761047 667.827148 835.645874 692.109985 832.695984 701.817322 Z"/>
                </g>
            </g>
            <g id="g4">
                <g id="g5">
                    <path id="path1" fill="#151515" fill-rule="evenodd" stroke="none" d="M 1045.382324 271.092102 C 1042.549927 273.693359 1039.13269 276.044067 1035.312134 278.053528 C 1023.725952 284.147461 1004.612732 287.353638 1006.36499 274.511169 C 1006.738281 273.922729 1009.488342 268.677795 1015.048706 271.398682 C 1016.751587 272.231812 1016.944519 273.050293 1017.499268 273.695129 C 1037.998047 271.531677 1044.15979 258.750183 1044.343628 257.940979 C 1046.628906 247.900085 1029.765747 228.833252 987.072754 232.616882 C 948.796204 236.009521 928.650818 255.244812 924.474915 269.499939 C 921.196106 280.692932 924.95874 294.273315 946.43512 303.37854 C 966.741455 311.987305 994.669495 310.883972 998.553528 311.792053 C 999.168701 311.935791 1001.598267 312.310669 1001.467346 314.133423 C 1001.044983 320.027161 964.115906 314.756348 952.295898 311.516602 C 928.808289 305.078613 902.1427 288.003723 921.272034 259.127869 C 925.830322 252.246582 935.048401 242.059448 950.561035 235.072021 C 973.339966 224.81189 991.834961 226.412537 997.81366 226.389404 C 1006.615967 226.355225 1037.024902 224.796631 1050.142944 243.371521 C 1057.106445 253.231079 1053.878052 263.288269 1045.382324 271.092102 Z"/>
                </g>
            </g>
            <g id="g6">
                <g id="g7">
                    <path id="path2" fill="#151515" fill-rule="evenodd" stroke="none" d="M 865.970398 210.765686 C 862.704163 209.320007 860.313599 207.506104 859.542297 205.328918 C 856.12915 195.694519 878.144836 180.284668 880.773315 180.257141 C 882.660645 180.237366 884.073608 181.617432 884.469421 182.686707 C 884.648376 183.169189 885.221191 184.579834 883.274353 186.97644 C 881.525574 189.129211 865.847473 198.222473 865.996399 202.328918 C 866.239868 209.034729 894.027832 208.074402 898.053772 209.372192 C 898.906494 209.647034 900.779297 210.154663 900.696838 211.912415 C 900.486877 216.393677 877.638062 215.929199 865.970398 210.765686 Z"/>
                </g>
            </g>
            <g id="g8">
                <g id="g9">
                    <path id="path3" fill="#151515" fill-rule="evenodd" stroke="none" d="M 897.41864 174.604736 C 897.515564 180.639404 889.199646 181.736938 887.397339 177.828308 L 887.330322 177.694946 C 886.361267 175.333496 889.206604 169.515076 893.659424 170.080322 C 896.589844 170.452271 897.395508 173.141052 897.41864 174.604736 Z"/>
                </g>
            </g>
            <g id="g10">
                <g id="g11">
                    <path id="path4" fill="#151515" fill-rule="evenodd" stroke="none" d="M 1041.178467 415.857117 C 1041.172363 415.835632 1041.150391 415.922577 1038.74231 415.282837 C 1038.698364 415.271301 1034.297974 414.000275 1033.842651 413.861389 C 1029.597778 412.568817 1024.047363 410.683502 1021.228394 409.608948 C 1015.361145 407.37323 1008.360229 404.216431 1004.430664 401.088135 C 1000.905029 398.280273 1000.086914 396.088074 999.771484 393.952393 C 997.944702 381.593994 1019.980896 375.893677 1022.428467 375.885681 C 1024.168823 375.880676 1026.162109 377.486084 1026.432983 375.36792 C 1026.80835 372.427979 1020.486267 376.242981 1007.422607 362.441223 C 1005.628723 360.545959 1002.933777 357.574097 1002.297974 353.712036 C 1001.372864 348.091187 1006.034058 342.784607 1008.527649 339.980225 C 1005.171509 339.57489 985.151489 335.695129 984.656677 327.01709 C 984.431274 323.059814 988.417786 319.845276 989.510864 319.319458 C 995.114197 316.623901 1026.622803 319.492432 1017.78125 335.422363 C 1018.380981 335.732971 1019.587463 335.748779 1020.400696 337.318665 C 1023.724976 343.733337 1010.746826 346.663635 1009.411865 351.401917 C 1006.95874 360.108093 1029.072388 369.1427 1030.421021 371.497803 C 1031.623047 373.597046 1030.463501 373.724976 1030.234131 374.434204 C 1063.782837 368.39502 1096.758423 370.719116 1107.674316 372.216553 C 1124.724976 374.555176 1126.989624 380.805847 1127.803223 382.299683 C 1126.674194 391.4823 1118.341187 391.725708 1105.004883 392.749329 C 1059.731934 396.224487 1031.364014 385.248169 1024.80957 380.787292 C 1020.574707 383.76416 1008.260803 387.191467 1007.913879 391.639771 C 1007.206116 400.717834 1043.777832 410.855988 1044.990479 412.782227 C 1046.155518 414.632019 1044.507568 415.627167 1044.496582 415.650146 C 1118.142334 413.404541 1141.931396 427.382751 1141.797485 435.323792 C 1141.7146 440.23645 1136.777222 443.939056 1110.996094 442.326141 C 1079.807861 440.374878 1045.847534 427.994568 1040.043213 421.272522 C 1035.485474 423.355774 1021.818176 425.914307 1021.423828 430.723969 C 1021.113403 434.512054 1033.574707 442.70993 1035.625977 443.991028 C 1042.234009 448.118408 1054.798218 453.682831 1055.848877 455.712067 C 1056.850952 457.647827 1055.421997 458.574036 1055.412598 458.59848 C 1063.873901 461.294983 1073.178223 467.750092 1073.297241 473.427338 C 1073.362183 476.555725 1070.202393 480.802185 1067.724854 481.460388 C 1065.790161 481.97464 1060.627563 480.735107 1055.495483 475.403137 C 1051.526001 471.279205 1051.200562 468.336304 1051.146118 468.196899 C 1050.875244 467.501068 1051.06665 466.891357 1051.008667 466.84787 C 1050.982666 466.8284 1051.062622 466.59845 1051.030151 466.584473 C 1050.659302 466.421051 1050.61731 466.879333 1050.529419 466.659454 C 1046.394897 474.178131 1055.435425 486.202576 1061.979492 495.083221 C 1064.980347 499.155243 1066.860107 501.095459 1065.15686 502.629822 C 1062.316895 505.188934 1055.025269 495.95993 1051.127075 490.269531 C 1047.481567 484.946503 1033.407227 459.272186 1051.714844 458.018219 C 1025.730225 447.181824 1011.45105 438.370087 1013.641296 428.80719 C 1015.925415 418.833435 1033.718628 416.024506 1037.089478 416.544312 C 1040.906982 417.133118 1037.931152 418.285217 1040.663086 415.958069 C 1040.5177 415.896576 1041.221924 416.008514 1041.178467 415.857117 Z M 1050.870728 420.736755 C 1081.140747 435.827515 1122.302734 436.723694 1130.650635 434.511566 C 1127.751221 432.380402 1101.191284 418.390167 1050.870728 420.736755 Z M 1035.532471 379.104004 C 1058.919678 386.543152 1070.303467 385.986877 1080.647461 385.976868 C 1114.371826 385.943848 1116.379028 383.427368 1116.682983 383.322815 C 1098.856689 374.561157 1059.197144 374.055786 1035.532471 379.104004 Z M 1013.617798 335.940979 C 1013.623779 335.826843 1013.601746 335.700623 1013.542236 335.562073 C 1013.533386 335.54071 1011.524109 333.936096 1011.504578 333.948303 C 1011.286194 334.089233 1012.100891 336.948914 1012.124329 336.962341 C 1012.137817 336.969849 1013.57428 336.740906 1013.617798 335.940979 Z M 998.130554 327.980408 C 1005.910767 331.131409 1005.110474 329.948364 1010.328552 332.798218 C 1007.561523 329.778137 1006.990784 328.959961 1005.687805 328.390747 C 1003.807495 327.569458 998.19812 327.977661 998.130554 327.980408 Z"/>
                </g>
            </g>
            <g id="g12">
                <g id="g13">
                    <path id="path5" fill="#151515" fill-rule="evenodd" stroke="none" d="M 804.676025 159.997742 C 804.742004 162.420532 805.240784 164.481262 806.4729 165.721924 C 811.49646 170.782288 826.309326 162.528564 828.450623 165.679565 C 831.472473 170.127075 817.301758 175.144409 807.040161 172.277405 C 793.972595 168.626404 798.793701 153.357483 799.291077 144.539429 C 781.949585 152.909058 774.248596 167.989502 770.930237 164.945313 C 769.427307 163.567017 771.55304 161.213745 773.971069 157.930359 C 770.620789 160.660645 768.772156 162.460938 767.395569 161.126465 C 765.750183 159.531067 767.748413 158.406006 774.589355 150.030884 C 770.625854 152.40509 746.620422 167.053833 733.452881 136.461426 C 715.368164 152.817261 711.551147 156.325195 707.396729 155.8255 C 703.65802 155.375732 699.839539 150.09729 699.467712 148.399414 C 698.909424 145.848755 706.888855 115.721619 711.534668 113.720093 C 713.336487 112.944031 717.48645 114.034607 718.292603 116.625793 C 719.52417 120.585999 707.496155 132.923645 709.001648 147.432922 C 718.461548 141.991821 730.824951 127.52948 735.172241 128.487122 C 739.961914 129.542358 738.900269 141.190735 748.307739 147.949402 C 757.515808 154.564331 772.037354 144.749695 774.729309 145.113831 C 777.167908 145.443909 776.75354 146.845093 776.897522 147.060425 C 788.325195 131.848938 789.832092 126.98407 793.290771 126.951782 C 794.809814 126.937378 797.546204 128.842834 797.745605 130.501709 C 797.939575 132.118896 795.802917 134.677429 790.208008 141.788696 C 793.460754 139.62915 799.068115 135.733276 800.619019 135.753723 C 802.086975 135.772888 807.317017 139.565735 807.714844 140.777161 C 808.182739 142.200867 804.478638 152.728821 804.676025 159.997742 Z"/>
                </g>
            </g>
            <g id="g14">
                <g id="g15">
                    <path id="path6" fill="#151515" fill-rule="evenodd" stroke="none" d="M 770.768738 167.739258 C 770.753357 168.421387 770.577881 168.986694 770.22699 169.300293 C 769.11145 170.298157 763.330627 169.486328 763.419556 163.255859 C 767.928894 159.630737 770.839294 164.782898 770.768738 167.739258 Z"/>
                </g>
            </g>
            <g id="g16">
                <g id="g17">
                    <path id="path7" fill="#151515" fill-rule="evenodd" stroke="none" d="M 602.404236 171.044617 C 599.974182 161.142395 599.648865 129.394409 602.049438 114.296265 C 601.278687 114.615112 602.245361 115.370117 599.701294 114.949768 C 599.342468 114.890564 583.429443 107.426636 583.811768 102.078369 C 584.005249 99.369385 587.723816 97.380066 589.49115 97.393188 C 593.047363 97.419739 600.31958 105.365051 600.395508 105.458435 C 602.55426 108.099854 601.196716 107.961121 601.162781 108.590759 C 594.080933 109.467468 593.672058 102.128662 591.579407 104.48468 C 590.082947 106.169739 594.904541 105.90686 602.01593 112.802124 C 605.012268 102.073792 604.928833 77.374451 631.920654 52.024841 C 649.769897 35.261475 673.197632 29.955017 683.525635 36.071411 C 701.065002 46.45874 686.291626 77.747314 678.412659 89.787415 C 655.449768 124.876099 633.004211 121.316956 625.611572 121.646179 C 678.658508 145.638245 693.877869 136.900391 696.249878 142.288696 C 697.896301 146.027222 695.929016 156.125366 621.358093 126.240356 C 615.123474 148.42041 614.08783 172.193176 610.870605 174.484253 C 608.828857 175.938477 604.539978 174.759399 603.573303 173.838684 C 603.141968 173.428101 602.75116 172.459167 602.404236 171.044617 Z M 620.583984 117.922546 C 620.546936 117.537598 620.415405 117.284973 620.152161 117.302063 C 618.717102 117.394836 618.872131 119.264526 618.872498 119.350281 C 618.873047 119.403625 619.304871 121.229431 619.450317 121.272705 C 619.96521 121.426819 620.696411 119.078186 620.583984 117.922546 Z M 607.671753 149.249268 C 607.76532 150.951172 607.877747 152.633362 608.016174 154.28064 C 614.058899 133.200623 613.556519 130.546936 617.050781 123.102478 C 609.611511 121.068665 604.953857 115.275269 612.53894 116.848145 C 611.591797 116.263062 607.607788 114.588562 608.633911 112.525757 C 609.670044 110.442749 611.452393 112.594971 617.802002 113.068481 C 618.24884 111.958313 618.845642 111.534912 622.40625 97.91394 C 622.726135 96.690613 627.706238 76.648743 628.152588 74.914124 C 630.490723 65.82428 631.88269 61.264832 632.396973 59.489075 C 608.41803 83.869873 608.503418 110.765259 607.651794 113.254211 C 606.853088 115.588867 606.017883 115.518677 605.854004 115.697693 C 607.281433 124.44873 607.018494 137.335693 607.671753 149.249268 Z M 624.120605 114.208496 C 638.670593 114.939087 654.280701 111.352478 669.865845 91.176392 C 684.964172 71.630432 687.472229 50.147888 680.533325 43.611877 C 675.216797 38.604309 656.043579 40.339478 637.562012 54.837158 C 637.588562 54.847595 639.332886 54.927856 640.364441 56.424744 C 641.240723 57.695679 641.667419 59.562317 638.525696 67.476196 C 630.507202 87.676941 624.833313 109.480347 624.120605 114.208496 Z"/>
                </g>
            </g>
        </g>
        <g id="g18">
            <g id="g19">
                <linearGradient id="linearGradient1" x1="517.701704" y1="-19.247642" x2="-51.843109" y2="81.178553" gradientUnits="userSpaceOnUse">
                    <stop offset="1e-05" stop-color="#a10000" stop-opacity="1"/>
                    <stop offset="0.391473" stop-color="#de2121" stop-opacity="1"/>
                    <stop offset="0.755814" stop-color="#ffff30" stop-opacity="1"/>
                    <stop offset="1" stop-color="#fffc43" stop-opacity="1"/>
                </linearGradient>
                <path id="path8" fill="url(#linearGradient1)" fill-rule="evenodd" stroke="none" d="M 307.78125 778.66333 C 315.151398 777.401306 318.753601 776.033325 321.616119 773.407837 L 324.524719 770.740295 L 323.118378 767.223633 C 320.723328 761.233398 318.330444 759.88739 309.095184 759.335632 C 298.126862 758.680847 293.481873 755.736511 292.409424 748.757629 C 292.037598 746.337524 292.101196 746.163635 292.788177 747.718994 C 293.242401 748.747131 293.779022 749.588745 293.980865 749.588745 C 295.317291 749.588745 296.965942 729.749268 297.076874 712.325378 C 297.097015 709.1875 295.593079 707.168762 291.737396 705.157593 L 289.101196 703.782593 L 291.413544 704.143372 C 293.149048 704.414307 293.955963 704.064941 294.64801 702.744507 C 298.024872 696.29895 309.920929 682.509155 327.702972 664.427917 C 345.05127 646.788086 349.073242 642.216797 354.387268 634.102356 C 362.164337 622.226807 366.966522 613.978394 370.543182 606.351807 C 372.064575 603.107544 373.322632 600.675415 373.339142 600.946289 C 373.380615 601.627014 370.498657 609.752441 368.872833 613.539001 C 368.137085 615.252991 367.706757 616.654968 367.916168 616.654968 C 368.125061 616.654968 370.65213 613.211182 373.531036 609.002808 C 380.80835 598.364746 386.121307 592.891846 395.109924 586.775696 C 404.077545 580.673462 411.079407 575.117554 413.190094 572.430054 C 414.004303 571.392517 416.354889 566.231934 418.413116 560.962891 C 423.539703 547.837341 435.45517 524.432129 437.01062 524.432129 C 437.180054 524.432129 436.703735 525.834106 435.952515 527.547974 C 432.384857 535.682495 429.819855 542.151428 430.064728 542.396851 C 430.537079 542.869751 443.769104 526.476379 450.419556 517.179443 C 453.941223 512.255737 458.63446 505.13446 460.848663 501.354858 C 465.314484 493.732239 472.155884 479.030273 472.161865 477.042999 C 472.163879 476.34079 470.306549 473.933167 468.033936 471.693024 C 465.761261 469.452911 464.044922 467.477112 464.21936 467.302185 C 464.393768 467.127777 466.779877 468.78717 469.520905 470.990814 C 477.325409 477.264954 482.68692 480.139435 493.809753 484.013397 C 503.95285 487.546082 514.142029 492.247345 517.41333 494.903809 C 518.326538 495.644989 516.832092 495.163696 514.09259 493.833679 C 506.525879 490.160065 504.368195 489.872253 509.874176 493.269897 C 515.928833 497.00647 523.261108 502.64743 526.453369 506.024567 C 528.757019 508.461731 529.06842 508.546173 534.340393 508.160828 L 539.829346 507.75943 L 532.97644 509.859619 C 524.527588 512.448669 518.889832 515.578979 511.51651 521.775635 C 504.358215 527.792908 497.758759 535.648376 492.797089 544.058777 C 488.344818 551.606445 478.590912 575.68634 476.725098 583.737305 C 474.58847 592.958313 468.979095 610.480774 464.720184 621.240173 C 461.000061 630.637634 458.167175 636.826782 458.085175 635.735779 C 458.067169 635.491821 460.102417 629.16217 462.607971 621.670532 C 465.114014 614.178833 467.035828 607.920654 466.879364 607.763794 C 466.722412 607.606873 465.924713 609.262695 465.106537 611.443359 C 461.362915 621.423157 455.361206 631.130981 448.043457 639.04248 L 445.394958 641.905884 L 447.643066 643.699707 C 449.869781 645.476563 453.055084 649.723389 453.065582 650.929565 C 453.068542 651.273376 451.669586 650.000854 449.957245 648.102051 C 444.498291 642.047852 438.072754 640.674805 434.047729 644.703369 C 432.787231 645.964355 431.600677 647.463257 431.410736 648.034058 C 431.220276 648.605286 428.218933 650.134766 424.739746 651.43335 C 421.261078 652.7323 417.091125 654.805054 415.473267 656.040039 C 412.888184 658.013306 412.612305 658.567627 413.197601 660.610291 C 414.451111 664.985229 417.118622 670.243164 420.191467 674.398193 L 423.264313 678.552063 L 419.00592 674.060303 C 416.664276 671.589661 413.623932 667.575256 412.249939 665.138672 C 409.411011 660.104492 409.054657 660.116089 403.183868 665.424011 C 398.470184 669.685425 398.773529 671.384338 405.830872 680.269958 C 418.15976 695.792053 432.141968 708.476257 445.023621 715.822021 L 451.440186 719.481628 L 446.236145 719.987915 C 443.374237 720.266846 430.945404 721.446899 418.616547 722.610474 C 406.287689 723.774536 387.420837 725.585388 376.690338 726.63446 L 357.179718 728.543213 L 370.04834 729.091553 C 377.125732 729.393433 410.688019 729.735779 444.630737 729.852234 L 506.345001 730.064209 L 507.945892 728.089355 C 510.058136 725.485352 510.767334 722.421509 509.85318 719.855469 C 509.274872 718.232605 507.442078 717.093079 501.548798 714.691956 C 491.021759 710.403564 484.100342 705.230469 479.347168 698.09967 C 477.095001 694.720459 477.797272 694.189636 480.434723 697.277588 C 481.785736 698.859436 482.906799 699.824585 482.925293 699.422241 C 482.943787 699.019836 483.557098 694.925903 484.28833 690.324158 C 485.598358 682.075806 485.591766 681.895752 483.790009 677.545471 C 482.241058 673.805298 482.049652 672.261902 482.535461 667.422791 C 483.085754 661.938843 483.014771 661.611938 480.750641 659.151367 C 479.453644 657.742432 476.524689 655.824097 474.241608 654.88855 C 470.72641 653.448059 470.535461 653.268127 472.996033 653.714966 C 474.594421 654.00531 476.911072 654.758057 478.144104 655.388794 C 479.377167 656.019043 480.575195 656.534912 480.807129 656.534912 C 481.038544 656.534912 482.029144 653.824463 483.00827 650.511108 C 485.158417 643.236816 490.542938 632.146118 495.446625 624.892822 C 497.428802 621.961426 503.555511 614.888062 509.061951 609.174255 C 514.568359 603.460327 521.481323 595.983154 524.424194 592.557495 C 531.10321 584.782349 548.030212 563.495483 548.866455 561.81958 C 549.208801 561.134277 545.485718 564.685974 540.593079 569.712646 C 535.700928 574.739258 532.183716 577.916992 532.777527 576.774902 C 536.665039 569.296204 552.632568 553.100342 564.809937 544.28418 C 574.083008 537.571228 582.146423 530.065552 585.198242 525.307861 C 587.023071 522.463379 587.567322 520.626099 587.567322 517.315308 C 587.567322 508.965485 579.458862 486.123077 569.980469 467.772522 C 567.187073 462.363556 564.767944 458.072144 564.604553 458.235596 C 564.441101 458.399536 565.421265 461.237518 566.783142 464.542267 C 571.250977 475.384644 577.706116 496.684113 575.962769 494.829865 C 575.58844 494.431946 573.528687 490.25354 571.385986 485.543884 C 562.421875 465.845215 546.996216 440.371399 530.87323 418.641022 C 525.543213 411.457214 523.010254 408.841766 518.314453 405.671387 C 510.459961 400.369446 495.601044 391.596252 488.062836 387.810669 C 484.705139 386.124329 482.119568 384.583923 482.31604 384.386963 C 482.512482 384.190491 485.882172 385.114685 489.803741 386.441223 L 496.93454 388.85376 L 497.814178 386.644592 C 498.297485 385.430115 499.044739 382.812073 499.473053 380.826721 C 500.220825 377.364624 500.179352 377.23822 498.454956 377.729431 C 489.381378 380.316467 473.280426 382.503174 465.10907 382.25824 C 462.24411 382.172302 462.472015 382.057312 466.769928 381.424133 C 486.425507 378.525696 495.148712 376.147095 507.250641 370.387207 C 514.608398 366.88501 526.444885 359.106995 531.942322 354.161316 L 535.678406 350.799622 L 529.451721 353.662048 C 521.28186 357.418152 501.223938 361.135193 501.223938 358.893555 C 501.223938 356.611389 504.069305 348.834839 505.882141 346.161377 C 507.025757 344.475037 507.78244 342.629761 507.564545 342.060486 C 507.34613 341.491638 505.389313 340.758972 503.215668 340.432556 C 496.621185 339.443359 489.445831 336.875305 484.366302 333.686951 C 481.715271 332.023376 479.705536 330.503052 479.899414 330.308655 C 480.093903 330.114563 482.262054 330.769043 484.719147 331.763184 C 493.296936 335.234741 504.111328 336.92334 506.708344 335.196533 C 507.292664 334.807739 507.789886 329.141235 508.077362 319.596558 C 508.555664 303.734009 508.955017 301.925415 513.282837 296.016357 C 514.428406 294.452271 516.085815 290.900513 516.965454 288.123413 C 517.845642 285.346191 518.586426 283.896912 518.612305 284.902649 C 518.682861 287.6745 516.941956 295.25177 515.653992 297.776001 C 514.608826 299.825378 514.668335 300.124756 516.355164 301.307007 C 521.769226 305.10199 530.151489 301.268555 541.07489 290.00177 C 548.199707 282.65271 549.229797 281.182434 551.734375 274.782166 C 553.259277 270.885498 554.773743 267.862488 555.100586 268.064697 C 555.427002 268.266541 556.608032 266.758728 557.72406 264.713745 C 559.475464 261.505249 559.583496 260.887817 558.509338 260.208069 C 557.482178 259.558716 557.555115 259.418091 558.924683 259.405151 C 561.939026 259.37616 565.718628 256.31012 567.642334 252.332397 C 569.265259 248.9776 569.464661 247.569763 569.065369 242.287354 C 568.722961 237.754456 568.944946 235.268738 569.911499 232.805969 C 571.028625 229.960144 571.058105 229.132202 570.110535 227.191956 C 569.499207 225.939941 568.786987 222.860901 568.528015 220.349426 C 568.100159 216.196899 567.774902 215.600525 564.943848 213.771179 C 560.974915 211.206604 560.84137 208.340027 564.321167 200.406006 C 565.691101 197.282715 566.811707 194.352173 566.811707 193.893921 C 566.811707 192.628845 562.389404 191.926147 560.04425 192.81842 C 557.345764 193.845276 555.391052 196.91156 554.232483 201.934326 L 553.299805 205.976318 L 548.358643 204.437622 C 545.641174 203.590881 542.19397 202.89856 540.698547 202.89856 C 538.093506 202.89856 537.957581 202.737366 537.451782 199.043823 C 537.161377 196.923767 536.885986 193.091492 536.838989 190.527893 C 536.761536 186.257507 536.691528 186.092896 536.008789 188.56665 C 533.784668 196.622253 533.658691 196.747009 534.116516 190.436035 C 534.365417 187.00885 535.071655 180.742859 535.685913 176.511658 C 536.419189 171.462952 536.544067 167.914673 536.049744 166.188782 C 535.104126 162.889771 531.65094 159.203064 527.510071 157.07196 C 524.247314 155.3927 510.848755 152.645935 509.622284 153.404541 C 508.166809 154.304749 510.646332 146.50647 513.742676 140.44635 C 515.533508 136.942322 516.998413 133.498291 516.998413 132.793091 C 516.998413 131.09668 522.528381 129.554626 529.591187 129.281433 C 535.62793 129.048035 539.664368 127.437256 541.14386 124.670593 C 541.892578 123.270691 541.773621 121.957397 540.579041 118.440369 C 539.113586 114.126038 539.113586 113.901978 540.583069 111.412537 C 542.070496 108.892395 542.066528 108.806519 540.374084 107.112976 L 538.647278 105.384949 L 541.212402 103.824158 C 543.591431 102.376282 543.741882 102.008789 543.294983 98.746826 C 543.030151 96.812683 542.609314 94.686584 542.359436 94.021729 C 542.061523 93.229675 543.05011 92.159973 545.22583 90.918823 C 547.052612 89.877014 548.54657 88.560486 548.54657 87.993042 C 548.54657 87.425598 545.717102 84.396423 542.257996 81.261414 C 538.798706 78.126343 535.641418 74.699768 535.241577 73.646606 C 534.696838 72.213196 533.721191 71.649353 531.360046 71.403503 C 529.625732 71.222778 532.154724 71.012329 536.980408 70.935486 C 549.421265 70.737549 553.113831 69.455383 558.731689 63.382751 C 563.391479 58.346008 564.52356 55.750977 563.39447 52.695496 C 562.706726 50.835083 561.084839 50.402649 552.282654 49.731812 C 548.924927 49.475769 547.842346 49.596252 548.961914 50.101196 C 552.638977 51.759705 542.8927 49.72644 537.358765 47.68042 C 533.277344 46.171509 530.187988 44.27002 526.895264 41.240601 C 522.022583 36.757813 517.709229 34.729797 506.205475 31.513428 C 500.917023 30.034851 497.580322 29.764404 484.065887 29.720764 C 475.31366 29.692444 468.233856 29.588501 468.332336 29.489746 C 468.431244 29.391113 472.22937 28.698608 476.773163 27.950928 C 484.518188 26.676575 495.888428 26.697449 504.129791 28.001343 C 505.755219 28.258484 505.322876 27.947144 502.884308 27.104919 C 497.936646 25.395691 480.069885 24.62793 472.581207 25.803162 C 452.978607 28.879028 438.396088 45.568665 433.970276 69.993469 C 433.026093 75.203735 434.009705 79.185852 437.120605 82.747437 C 437.902283 83.642578 438.044739 84.082703 437.436951 83.725769 C 436.829193 83.368958 435.655121 81.963684 434.82843 80.603088 L 433.324982 78.129395 L 428.669281 82.78894 C 423.563202 87.898865 422.497589 87.969177 426.655029 82.921814 C 429.694397 79.231689 427.492706 79.941528 423.900055 83.809875 C 421.00766 86.9245 419.530731 89.97168 416.019043 100.067322 C 412.431885 110.379578 408.957703 117.444397 405.186096 122.093018 C 402.153259 125.831665 403.091888 126.086853 407.812103 122.806702 L 410.291656 121.083679 L 408.429871 123.700012 C 405.573975 127.714172 398.57959 133.684814 392.52887 137.275208 C 385.331573 141.545166 377.391113 144.487061 366.727142 146.833374 C 360.002655 148.31311 358.791565 148.767883 361.429596 148.822815 C 363.310425 148.862 368.125061 148.322571 372.129089 147.623657 C 379.886139 146.27002 382.421722 146.43396 376.514435 147.907104 C 364.494934 150.904297 338.436798 151.264893 326.105225 148.604431 C 319.014099 147.074585 321.180939 148.719604 330.175476 151.69458 C 339.368439 154.735046 350.695648 156.055603 358.782104 155.02948 C 364.014648 154.36554 364.940765 154.409119 363.772247 155.264343 C 361.183746 157.158508 346.797119 161.52179 342.722656 161.648376 C 338.897095 161.767151 338.781158 161.841736 339.855225 163.484497 C 341.731506 166.3526 347.571838 169.079773 352.947327 169.598145 L 357.950897 170.080627 L 355.507324 171.678284 C 354.162872 172.55719 350.814087 173.504333 348.064636 173.783386 L 343.06604 174.290466 L 345.849976 176.050537 C 351.00351 179.308838 360.55896 179.180969 365.761993 175.783997 C 366.828552 175.087402 367.871704 174.687622 368.07962 174.895447 C 368.287537 175.103394 367.227448 176.06189 365.724457 177.025085 C 364.221039 177.988037 363.290405 178.782715 363.655273 178.790344 C 365.101227 178.820862 369.933899 175.889526 375.85968 171.387329 C 386.155273 163.565735 387.823639 162.494141 386.820038 164.347412 C 386.350189 165.215942 384.777802 167.047974 383.325348 168.418884 C 381.873383 169.789673 378.7771 173.154785 376.444458 175.896423 C 371.697754 181.476868 373.602509 180.050415 383.633759 170.513245 C 386.768066 167.533447 388.918762 165.907166 388.413452 166.899231 C 386.795532 170.076111 370.303772 186.71582 360.523468 195.040039 C 350.476257 203.590881 345.938965 209.20166 341.645569 218.382568 C 338.293823 225.550232 338.016968 231.06073 340.870361 233.822998 L 342.826111 235.716553 L 341.431641 232.939087 C 339.792786 229.673157 340.178131 228.490845 341.858032 231.632568 C 343.418396 234.550598 348.465515 237.301025 355.985199 239.331238 C 365.038239 241.775269 374.158295 242.807495 392.049103 243.412964 C 409.905334 244.017334 408.180481 245.018555 388.728302 245.340454 C 378.505676 245.509583 377.80545 245.604675 382.916504 246.129639 C 386.112793 246.457703 394.18277 246.772766 400.848724 246.82959 C 407.51474 246.88623 415.75766 247.168823 419.165863 247.457092 L 425.36203 247.981201 L 425.428009 257.21936 C 425.464478 262.300232 426.229706 271.131042 427.128845 276.842957 C 428.925171 288.256653 429.033142 288.131958 430.353607 273.104309 C 430.894928 266.940735 430.983856 266.699097 431.578644 269.780823 C 433.123566 277.791321 431.779602 299.856506 429.363495 306.158447 C 429.06012 306.94928 429.448975 307.625305 430.387115 307.937988 C 431.219299 308.215332 432.834198 309.180054 433.975769 310.082275 L 436.050964 311.722412 L 432.030487 310.379578 C 428.189941 309.096924 427.910522 309.110168 425.803864 310.67572 C 423.185852 312.621155 421.852325 315.013672 420.63678 319.946594 C 419.96701 322.663757 418.292145 325.115906 414.02478 329.627747 C 410.88147 332.951172 406.618561 338.286865 404.551361 341.484192 C 400.595856 347.603821 392.913269 362.317322 393.415588 362.812134 C 394.829529 364.204041 406.416138 366.083862 416.126007 366.496216 L 427.749146 366.989563 L 423.182831 368.235535 C 417.133636 369.885986 404.539856 369.759949 396.2005 367.966187 C 392.547394 367.18042 380.452911 363.536377 369.323608 359.867188 C 337.501129 349.376648 325.617035 346.999512 308.432587 347.68573 C 292.202148 348.334534 282.874451 351.304382 263.897095 361.867432 C 251.576263 368.725403 246.477188 370.2453 235.966614 370.191772 C 224.627228 370.13385 213.933868 367.799194 191.892654 360.56897 C 176.55542 355.537354 175.978271 355.417419 167.057831 355.390381 C 159.311218 355.367371 156.854462 355.710266 150.868393 357.648499 C 146.986938 358.906006 142.317108 360.675354 140.490555 361.581543 L 137.169647 363.228943 L 142.566147 362.709656 C 151.080246 361.891418 163.359436 362.138306 168.755478 363.236877 C 177.284073 364.973328 186.139084 369.791931 197.77623 379.029968 C 203.71225 383.742249 210.904358 388.697327 213.758682 390.04187 C 223.480042 394.621094 236.507523 393.942871 245.099243 388.410461 C 246.925598 387.234375 253.650574 380.979187 260.043274 374.509644 C 275.096924 359.276428 279.003418 356.996277 289.931244 357.066711 C 300.60611 357.135254 307.997131 359.92511 340.200592 376.041138 C 367.825195 389.865906 376.312012 393.160156 384.302979 393.160156 L 388.066528 393.160156 L 389.570496 398.718994 C 391.580231 406.149231 395.826141 414.45462 400.14151 419.396729 C 403.388306 423.114838 403.459747 423.290314 401.029694 421.576416 C 397.45401 419.054443 391.825684 412.562378 389.830414 408.657349 C 387.461792 404.022522 387.170898 405.397522 389.279114 411.26181 C 391.747192 418.126221 398.02829 426.433136 404.172485 430.9599 C 409.988312 435.244293 409.104645 435.898071 402.568115 432.146973 C 398.379639 429.742828 390.804047 422.732483 390.804047 421.259552 C 390.804047 419.486725 388.930756 420.884216 387.855621 423.45874 C 385.962372 427.993011 386.403717 430.653992 390.050323 436.705688 C 394.154266 443.51416 394.105804 444.09201 388.327942 457.381958 C 383.482788 468.527283 381.386597 476.485748 379.638275 490.368011 C 375.989624 519.345581 373.976868 529.039917 368.750336 542.812256 C 366.209839 549.508667 362.034851 558.496338 361.466064 558.496338 C 361.327118 558.496338 362.27829 555.225098 363.579285 551.226563 C 366.325745 542.785767 368.725861 532.801514 368.147583 532.222717 C 367.360382 531.435059 364.338531 537.427734 362.111877 544.192688 C 359.876221 550.985657 359.747742 551.161621 352.28656 557.632141 C 348.128113 561.238281 342.671173 566.097412 340.160126 568.430054 L 335.593842 572.671021 L 342.858093 568.831909 C 346.853607 566.720215 350.122864 565.152832 350.122864 565.348755 C 350.122864 565.544678 347.040558 568.074707 343.273468 570.971069 C 339.506378 573.868042 329.877869 582.818726 321.877136 590.861572 L 307.330383 605.484619 L 301.55896 619.585815 C 293.09491 640.265503 275.277679 675.796082 274.008484 674.526611 C 273.805023 674.322632 275.369049 670.706543 277.48465 666.491089 C 283.720703 654.065308 284.44989 651.10791 279.107452 659.909119 C 275.229492 666.297729 267.153625 677.214539 262.844788 681.892334 C 259.581085 685.436035 259.546448 685.53894 260.804535 687.973083 C 261.508331 689.334961 263.493042 691.640625 265.214752 693.096619 C 268.074005 695.51416 268.129456 695.63562 265.854858 694.496521 C 262.721802 692.928101 259.992645 690.023743 258.873657 687.067871 C 257.509583 683.465271 254.354797 683.963013 251.680176 688.203491 C 250.493637 690.084229 248.714386 691.832092 247.72612 692.087952 C 246.737854 692.343872 243.587112 693.771851 240.724228 695.26178 C 237.861374 696.751709 235.759064 697.581909 236.052658 697.106567 C 237.471771 694.808472 231.687408 699.672119 229.644089 702.495117 C 227.37413 705.631348 227.340302 705.825806 228.560669 708.748169 C 230.232086 712.751709 234.307587 719.071777 238.744232 724.541748 C 240.728546 726.987793 241.806396 728.670227 241.139694 728.280334 C 238.941284 726.994812 230.831116 717.111023 227.883911 712.125366 L 224.989639 707.229248 L 221.641449 709.656372 C 217.69075 712.520264 215.62326 715.246765 215.633865 717.578857 C 215.658081 722.758911 229.017502 738.462524 239.115479 745.180481 C 247.78093 750.94574 256.660583 758.295532 259.784729 762.289917 L 262.522644 765.789734 L 257.131805 761.192444 C 248.604538 753.920166 248.093567 753.762207 253.698349 760.133789 C 256.589417 763.420593 258.745087 766.449463 258.488525 766.864807 C 258.232269 767.280151 253.620056 767.876953 248.239822 768.190735 C 242.859467 768.505249 226.875519 769.651245 212.720306 770.737793 C 198.564957 771.824402 177.92865 773.379883 166.862015 774.195007 C 155.795135 775.009705 147.202499 775.96991 147.766693 776.328735 C 148.33139 776.687073 155.89122 776.995483 164.567154 777.013977 C 173.243088 777.03241 204.999191 777.59021 235.136429 778.253967 C 295.078888 779.573486 302.228912 779.614014 307.78125 778.66333 Z M 536.834961 248.179199 L 535.889771 245.686646 L 534.783752 248.179199 C 533.344299 251.422729 533.345276 250.546631 534.788208 243.773621 C 536.151733 237.373535 537.125366 224.752502 536.171265 225.843811 C 535.817871 226.247314 535.028687 227.885803 534.416382 229.485107 C 533.348816 232.275269 528.886475 239.455261 528.220764 239.455261 C 528.043823 239.455261 529.162354 236.719421 530.70636 233.37561 C 533.653198 226.992249 536.924011 216.3125 536.924011 213.071716 C 536.924011 211.219849 536.99646 211.201843 539.41449 212.453247 C 541.136353 213.344177 541.90509 214.360168 541.90509 215.743835 C 541.90509 219.351074 543.477966 221.99292 546.477844 223.424438 C 548.606628 224.440308 549.269775 225.190552 548.860962 226.120178 C 547.482971 229.251343 547.613892 232.497681 549.197327 234.454468 C 550.812256 236.450195 550.81073 236.470825 548.852478 240.157166 C 547.770874 242.192078 546.886169 244.670837 546.886169 245.665527 C 546.886169 247.480591 544.941467 249.632202 541.07489 252.093872 C 538.77478 253.558472 538.92865 253.700745 536.834961 248.179199 Z M 406.895477 216.618469 C 404.66629 215.324646 401.785919 213.390625 400.495361 212.320923 C 399.204865 211.251221 397.616516 210.376221 396.966705 210.376221 C 394.597595 210.376221 395.898102 209.03595 400.974213 206.246582 C 403.828125 204.678467 409.101135 201.394775 412.69278 198.949524 C 416.283905 196.504272 419.375305 194.656982 419.562195 194.844116 C 419.749115 195.031006 419.352783 195.640442 418.681519 196.197937 C 417.727875 196.989685 417.651398 197.697266 418.332153 199.431946 C 418.810944 200.65332 419.39975 205.578064 419.640167 210.376221 L 420.077515 219.099854 L 415.513214 219.035217 C 412.089539 218.987183 409.935303 218.382813 406.895477 216.618469 Z M 449.05307 129.774231 C 446.158661 128.866211 442.422577 128.0896 440.75119 128.048401 L 437.711823 127.973328 L 440.611237 127.141602 C 442.206146 126.684021 444.711212 126.504578 446.177673 126.742737 C 448.763184 127.162598 448.896606 127.035889 450.571533 122.556458 C 452.583252 117.174805 452.109436 114.699219 447.972992 108.985168 C 446.585999 107.069214 445.858276 105.753052 446.35556 106.060547 C 448.098938 107.138672 447.230255 105.471008 444.059998 101.651978 C 440.224884 97.032532 438.956879 94.746643 438.956879 92.452087 L 438.956879 90.735779 L 440.617767 92.397339 C 441.530884 93.311401 443.034363 94.059021 443.959015 94.059021 C 445.005096 94.059021 445.949738 94.87439 446.460052 96.217896 C 446.911377 97.405273 449.533875 100.597534 452.288849 103.311768 C 456.366333 107.329041 457.047607 107.763062 455.953003 105.645386 C 455.213776 104.214294 454.79538 102.857422 455.022797 102.629395 C 455.458649 102.193604 457.957245 105.902771 461.732269 112.588806 C 464.769653 117.96875 468.17337 119.144836 474.084167 116.857178 C 475.427124 116.337402 475.55954 116.705627 475.329163 120.323669 L 475.072266 124.371704 L 471.013306 124.948853 C 468.584717 125.294312 465.084045 126.703857 462.295563 128.458679 C 456.855133 131.883606 456.036438 131.964905 449.05307 129.774231 Z M 215.210938 439.186859 C 218.930832 438.28009 225.028381 435.806061 238.042145 429.922821 C 260.371063 419.829132 276.44516 415.253296 293.091858 414.251709 C 302.74527 413.670898 305.407166 414.479645 319.408234 422.24118 C 331.938904 429.18808 339.788269 432.068512 347.987152 432.727722 C 358.742615 433.592407 371.321899 429.569946 383.282867 421.441559 C 388.734344 417.736847 389.851379 416.415405 385.727966 418.549561 C 378.371735 422.35611 370.841583 423.946014 360.085632 423.963043 C 350.323303 423.978058 342.205841 421.775391 325.631165 414.613068 C 296.235809 401.910889 293.224396 401.059631 283.619476 402.739563 C 280.241608 403.330322 270.566315 405.500427 262.118713 407.562195 C 230.576538 415.259827 231.120865 415.177338 211.89003 415.173859 C 194.548798 415.170868 194.426346 415.158356 189.058868 412.806213 C 186.090698 411.505737 182.300369 410.038269 180.635757 409.545441 C 177.310013 408.560333 176.083374 408.933716 161.246277 415.441284 C 146.875793 421.744385 132.249649 424.686829 115.143936 424.71579 C 94.050056 424.751221 62.550266 419.062897 37.710091 410.733063 C 32.366802 408.941223 27.994947 407.595215 27.994947 407.741638 C 27.994947 407.887573 32.571632 410.394135 38.165215 413.311066 C 43.758797 416.227905 54.313324 421.839294 61.619068 425.780823 C 68.925117 429.7229 78.451874 434.340607 82.789848 436.042969 C 90.063553 438.8974 91.486015 439.16684 101.078651 439.505188 C 106.873917 439.709625 114.227524 439.446167 117.683273 438.910889 C 129.221893 437.122589 149.562576 431.521179 161.267319 426.907898 C 173.579422 422.055206 178.439819 420.854767 182.077393 421.768372 C 183.303436 422.076294 187.529419 425.431 191.468506 429.223602 C 195.407745 433.015625 199.899933 436.775177 201.451462 437.577881 C 204.271164 439.037354 212.078094 439.949982 215.210938 439.186859 Z M 202.274979 338.666687 C 209.846436 336.629456 217.95311 330.891846 222.401382 324.421814 C 224.522537 321.336243 224.724686 320.713562 223.442825 321.209961 C 214.153091 324.807983 207.308624 326.13269 197.77623 326.177307 C 186.336151 326.230835 186.635559 326.322632 163.009064 315.518127 C 137.513596 303.859192 125.646278 300.159912 113.628105 300.124451 C 106.680038 300.103882 101.913635 301.192566 86.228287 306.382507 C 58.600304 315.523621 40.081142 314.483093 16.078192 302.441589 C 12.492089 300.642639 9.419065 299.309631 9.249404 299.479553 C 9.07938 299.649536 10.519096 301.095337 12.448625 302.692505 C 31.879572 318.776794 51.217838 325.646301 70.489334 323.310364 C 79.590645 322.207153 87.530746 319.837952 102.300278 313.818359 C 123.344154 305.241577 127.203453 304.862366 137.817612 310.328125 C 141.635757 312.29425 147.909134 316.161377 151.75795 318.921753 C 179.174026 338.583679 188.718216 342.314331 202.274979 338.666687 Z M 547.735352 335.624573 C 551.646484 329.242371 553.046936 324.069702 553.07843 315.891907 C 553.112305 307.042908 551.894836 303.730896 546.352417 297.591553 L 543.399536 294.320862 L 538.708801 298.361633 C 536.128784 300.584045 532.746521 303.04657 531.192627 303.833801 L 528.367188 305.265503 L 531.192627 307.402039 C 536.102722 311.114441 542.560791 318.108765 544.387146 321.690735 C 546.565857 325.965271 547.392029 332.353821 546.206421 335.758484 C 545.050415 339.076538 545.652161 339.023499 547.735352 335.624573 Z M 233.476028 296.872559 C 235.759064 296.040649 241.100952 293.596069 245.346802 291.440186 C 256.082001 285.989197 263.016693 284.656494 274.511658 285.835571 C 279.339569 286.33075 290.442383 288.042725 299.184814 289.639771 C 330.936523 295.440857 333.137207 295.459351 364.325012 290.189453 C 388.127533 286.167297 404.283966 283.795227 415.182861 282.72168 C 419.687134 282.278076 423.472717 281.802063 423.596191 281.663879 C 423.874573 281.350464 422.573547 271.794739 422.206238 271.455811 C 421.440491 270.750427 391.569763 268.386414 373.700989 267.616882 C 351.186951 266.647095 321.976868 267.604675 309.441589 269.7229 C 305.560455 270.378906 297.341064 272.628418 291.176697 274.72229 C 284.091492 277.128845 277.220032 278.856384 272.496613 279.419189 C 268.386963 279.908997 262.409424 280.838562 259.213165 281.485107 C 240.903122 285.187927 228.450089 285.902405 217.01416 283.906677 C 205.212082 281.847107 197.759598 278.845093 187.002243 271.817566 C 172.445343 262.307617 163.0923 259.391541 147.181931 259.402039 C 135.00737 259.410034 122.710709 261.776428 108.162193 266.910645 C 91.463921 272.80365 91.461319 272.538086 108.20842 272.057556 C 135.712845 271.268311 150.639465 273.963379 171.156158 283.422729 C 196.716766 295.207336 207.518326 298.462402 220.905945 298.414795 C 226.911957 298.393372 230.514587 297.951416 233.476028 296.872559 Z M 320.23465 243.126465 C 325.118378 241.838074 333.516846 238.72522 334.575226 237.810913 C 334.928589 237.506226 334.77063 235.321228 334.225372 232.955566 L 333.233124 228.654541 L 323.620514 228.649963 C 312.778046 228.644775 297.14093 226.553223 279.968628 222.811096 C 244.28334 215.034485 236.070663 213.768066 217.286697 213.145996 C 202.455093 212.654663 186.162247 213.917542 175.775238 216.363159 L 171.208984 217.438232 L 179.926361 217.620789 C 218.636276 218.431641 250.179062 224.386169 283.289642 237.133728 C 303.009064 244.725586 309.922058 245.847046 320.23465 243.126465 Z"/>
            </g>
        </g>
    </g>
</svg>
