<?xml version="1.0" encoding="utf-8"?>
<!DOCTYPE svg PUBLIC "-//W3C//DTD SVG 1.1//EN" "http://www.w3.org/Graphics/SVG/1.1/DTD/svg11.dtd">
<!-- exported from Silhouette Studio® Business Edition V4.5.180ssbe -->
<svg version="1.1" xmlns="http://www.w3.org/2000/svg" xmlns:xlink="http://www.w3.org/1999/xlink" width="304.8mm" height="304.8mm" viewBox="0 0 304.8 304.8">
<defs>
<path id="path_ec46cf7276075b76906c6cf2928756d8" d="M 104.365 98.91302 C 105.7588 97.39691 107.0619 96.48926 107.7402 97.26526 C 108.6086 98.25891 104.3654 103.1293 100.3843 112.0306 C 98.22449 116.8597 97.70642 118.7941 96.74231 122.2198 C 95.00244 128.4019 96.2334 130.7655 97.61536 134.9777 C 98.74573 133.9364 100.571 131.9948 101.9772 133.9089 C 102.7405 134.948 102.0667 135.5596 103.3472 141.6285 C 104.5529 147.3425 106.5175 150.6149 108.2903 152.6232 C 111.1393 155.8505 116.6503 157.7808 116.9052 159.4739 C 117.0876 160.686 115.6637 160.8328 114.8405 164.2502 C 114.1958 166.9264 114.3928 169.0582 115.2633 170.4293 C 116.2549 171.9911 118.124 173.246 118.5657 174.8896 C 118.8799 176.0592 118.7657 178.9058 119.5443 179.6561 C 120.343 180.4259 122.6592 180.0963 125.2043 180.0267 C 128.2874 179.9424 128.7781 180.9883 132.083 187.165 C 132.8455 188.59 136.4019 194.6846 137.4733 195.7078 C 138.9143 197.084 146.3932 200.6656 146.8372 200.8329 C 147.0427 197.8337 145.5155 196.3209 144.2008 193.0167 C 142.9183 189.7935 144.9697 186.631 145.6301 185.1815 C 146.8033 182.606 146.436 184.0307 146.5848 177.4747 C 150.389 170.0226 151.2195 169.5691 150.932 166.0493 C 150.8295 164.7944 150.4286 163.7859 148.8701 162.567 C 146.4647 160.686 142.2744 158.0755 141.4186 157.6591 C 138.9303 156.4481 136.7776 157.7155 132.8285 154.8953 C 130.8685 153.4955 128.8125 151.4905 126.1826 152.5795 C 124.3704 153.3298 124.2405 155.4656 123.7263 155.7518 C 123.564 155.8422 123.9823 155.7559 118.5159 155.337 C 116.8186 155.2069 115.4626 155.3735 113.7168 153.2167 C 111.7125 150.7407 111.8094 148.9941 111.7657 147.7258 C 111.5814 142.3821 114.1122 138.7741 114.8373 138.1827 C 115.1403 137.9355 115.4242 137.8159 115.6995 137.8726 C 116.641 138.0665 116.9996 140.6413 117.8091 141.1915 C 118.8624 141.9075 120.9005 140.0062 122.171 145.268 C 123.4514 142.6573 123.1321 142.2573 129.5836 133.4858 C 129.6179 133.4393 133.1499 128.6801 133.458 128.2608 C 135.9028 124.9337 133.4208 128.4451 135.9667 124.7675 C 135.1205 125.0129 133.4105 125.6127 132.7742 124.9432 C 131.8745 123.9966 133.5562 118.1107 135.1018 116.8772 C 135.906 116.2354 136.7709 116.2593 137.8859 117.0441 C 139.1146 117.9091 140.4561 120.0143 142.5762 120.5055 C 144.1025 120.8591 146.613 120.3703 146.9707 119.7295 C 147.4752 118.8255 145.4333 115.9208 144.9243 115.0978 C 143.301 112.4731 142.6622 110.9882 141.7319 110.7639 C 139.3678 110.1937 131.9133 117.0953 131.1815 117.3466 C 131.0806 117.3813 127.4973 118.1285 125.6375 115.0439 C 124.7908 113.6398 124.4524 111.2325 125.3521 109.9983 C 126.3057 108.6901 129.291 108.2264 132.1351 107.3406 C 136.3756 106.0199 138.0969 103.8841 139.1799 103.8357 C 140.3418 103.7838 141.5624 105.2047 144.0156 107.2977 C 144.527 105.782 144.3268 103.3397 142.5736 101.4751 C 140.4982 99.26776 134.2131 97.78717 132.6855 97.08026 C 130.4122 96.02832 127.4287 92.81653 125.7384 91.89154 C 122.6052 90.177 115.7585 93.336 113.265 94.56049 C 109.9889 96.16931 108.6578 96.93274 108.2212 96.39618 C 107.6433 95.68597 110.9563 91.78754 115.5123 87.57373 C 124.4193 79.33569 132.59 75.6579 135.2714 74.41852 C 138.7124 72.82806 143.9065 70.54089 144.3566 71.72162 C 144.6653 72.5318 142.946 73.18402 138.8119 75.53033 C 136.9487 76.58771 130.645 80.02185 126.0691 85.31659 C 126.8107 84.99451 133.5459 81.35864 137.0452 82.35394 C 137.9674 82.61627 138.3406 83.46118 138.3877 83.71136 C 138.7103 85.42493 136.2429 86.7771 135.0796 90.03101 C 133.6029 94.16107 138.983 93.89062 141.3297 94.13367 C 143.8585 94.39557 147.6785 94.5932 148.8669 99.97198 C 149.828 104.3215 149.5168 111.7334 151.6981 112.017 C 152.5535 112.1282 153.8782 111.232 154.3125 107.3029 C 155.0806 100.3538 154.3634 102.5558 155.5289 100.3222 C 158.439 94.74542 158.526 94.54199 158.582 93.73749 C 158.7483 91.35034 158.0698 91.62061 153.6627 89.14471 C 151.0548 87.67963 152.1116 86.84662 149.1349 82.29883 C 147.3772 82.93109 145.2719 84.82953 143.8799 83.77448 C 142.921 83.04773 142.6772 80.77557 143.6396 79.67987 C 145.2539 77.84198 148.4248 79.41608 149.5529 79.92194 C 152.1749 78.79474 152.0306 78.74622 154.0421 79.80969 C 156.5175 81.11847 159.3076 83.76257 164.0718 84.45386 C 168.6575 85.1192 170.8682 81.78461 171.4303 81.58411 C 172.0189 81.37415 175.7327 81.97961 181.2952 83.46741 C 187.7418 85.19171 190.292 86.36816 191.9037 86.5249 C 192.0463 84.74371 190.8459 82.98029 192.3676 82.08185 C 193.448 81.44391 196.2036 81.64838 196.9816 81.72394 C 199.5099 81.96954 202.0798 82.8595 202.9542 83.1723 C 208.3905 85.11688 208.363 85.95905 208.5426 85.68597 C 208.5562 85.66547 208.2867 85.45441 206.3577 83.99377 C 205.6898 83.48816 206.1306 83.81207 205.3302 83.22693 C 205.0879 83.0498 204.1569 82.35999 202.6902 81.39075 C 202.0258 80.95166 200.0271 79.62885 197.1879 78.12219 C 192.2706 75.51282 187.8041 73.91589 184.1433 72.84082 C 175.6301 70.3407 170.5762 70.25531 170.3265 70.24353 C 166.1405 70.04639 154.7412 69.67816 151.1068 71.18427 C 153.4224 72.37354 155.4154 71.60297 155.7848 72.57648 C 155.8241 72.68011 156.0635 73.64398 154.7343 73.60028 C 153.9316 73.57385 149.2606 72.96997 149.257 71.09631 C 149.2511 68.03711 165.0435 68.13666 171.3326 68.71527 C 179.9824 69.51105 191.1555 72.62555 201.2292 78.70984 C 204.959 80.96246 209.1316 83.96588 213.0646 87.68567 C 213.793 88.37457 215.8749 90.16205 215.1266 90.82928 C 214.7916 91.12799 214.3314 90.85327 213.0586 90.09192 C 207.9742 87.05066 198.9254 81.76318 193.3311 83.41064 C 193.3229 84.45483 194.1195 87.44977 192.6066 88.05334 C 191.7616 88.39044 187.5585 86.83246 185.2843 86.09064 C 182.5311 85.19257 173.5225 83.01788 172.5996 83.10223 C 170.882 83.25928 169.5966 87.01282 162.7277 85.71783 C 160.2822 85.25684 157.9204 84.1781 155.8693 82.76917 C 155.2565 82.34821 153.0814 80.68115 152.2642 80.64954 C 151.7648 80.63025 150.74 81.13733 150.6217 81.19305 C 150.9921 82.27893 153.231 87.19861 154.3077 87.83063 C 155.875 88.75055 159.8743 89.71899 160.1624 92.63263 C 160.4083 95.12109 157.4423 99.4917 156.7644 101.2073 C 155.679 103.9545 156.3821 108.1547 154.8544 111.2521 C 153.4144 114.1718 151.131 113.4985 150.7677 113.3152 C 147.0479 111.438 148.8756 102.9003 146.678 98.50061 C 145.0581 95.25769 142.3115 95.91595 138.0725 95.34918 C 133.6715 94.76074 133.1956 92.23444 133.2334 91.21698 C 133.3405 88.33423 136.425 85.60559 136.7504 83.90564 C 131.9072 83.21014 126.8293 87.31152 124.8505 87.28198 C 124.1902 87.27216 123.9868 86.90607 123.9371 86.78668 C 123.748 86.33221 124.1976 85.4447 124.8557 84.50348 C 125.6991 83.29724 127.0447 81.95996 128.2998 80.85449 C 132.4241 77.22205 133.0243 77.46906 132.9177 77.29114 C 132.9047 77.26935 130.7097 78.46246 130.3998 78.63599 C 128.0615 79.94482 126.5028 80.96796 125.6329 81.54175 C 123.8177 82.73914 122.4779 83.7251 121.8555 84.19446 C 121.843 84.20386 120.4791 85.26166 120.4669 85.27142 L 119.9851 85.67004 L 119.9845 85.67053 L 119.9846 85.67041 L 119.984 85.6709 L 119.2524 86.30774 C 117.2971 88.04388 113.8302 91.32874 111.8842 93.38123 C 117.2079 91.11908 122.1334 88.73059 125.6711 90.21179 C 127.7162 91.06799 130.9457 94.2052 131.9832 94.992 C 133.437 96.09467 134.9574 96.15424 138.3539 97.4892 C 142.8044 99.2384 145.4633 100.9024 145.6566 104.6775 C 145.7045 105.6119 145.7012 108.8045 144.7969 109.1725 C 144.5593 109.2692 144.2253 109.212 143.5643 108.818 C 142.7152 108.3118 140.1461 105.5548 139.4171 105.5245 C 138.5421 105.4882 136.9891 107.5607 132.3286 108.9713 C 129.5938 109.799 127.3243 110.0137 126.7238 110.8085 C 126.173 111.5374 126.2836 115.2914 129.0686 115.8449 C 130.2419 116.0781 130.5492 115.8393 134.4369 112.9116 C 141.1711 107.8402 142.5087 109.0503 143.7374 110.42 C 144.4667 111.233 148.3976 117.6478 148.6516 118.4924 C 149.0309 119.7535 148.3722 121.0383 146.885 121.6447 C 145.0526 122.3919 141.7242 122.0283 140.1572 121.1447 C 138.8033 120.3813 138.6095 119.5576 137.6097 118.6976 C 136.6178 117.8442 136.2708 118.024 136.2574 118.0261 C 135.0759 118.2141 134.0286 123.2459 133.9844 123.7061 C 135.9885 123.0704 137.2418 122.7029 137.7174 123.3054 C 138.3639 124.1246 138.1248 124.4546 129.8356 135.6851 C 125.1234 142.0692 124.5742 143.6589 123.6436 145.8499 C 122.9424 147.5005 122.7214 148.0143 122.1079 148.0153 C 120.6017 148.0178 120.4611 143.6047 119.5055 143.0023 C 118.9359 142.6431 118.2526 143.1201 117.173 142.5975 C 116.0629 142.0601 115.5726 140.5633 115.2885 140.024 C 113.7281 142.5726 111.8627 147.8729 114.5741 151.7983 C 115.8014 153.575 116.4694 153.6127 117.3674 153.7325 C 118.1425 153.8359 119.6398 153.8932 121.1797 154.0397 C 122.5314 154.1684 122.6094 154.2557 122.6968 154.2183 C 123.1283 154.0331 123.4066 151.7912 125.9235 150.9488 C 127.5573 150.402 129.1372 150.5912 131.4313 152.0554 C 133.8632 153.6075 134.5498 154.8221 137.4614 155.2684 C 139.9468 155.6494 140.1603 155.2681 143.9674 157.5648 C 144.0134 157.5925 149.0698 160.6984 149.1151 160.7272 C 156.374 165.3563 150.4259 173.4354 148.2192 177.2594 L 147.9883 183.6295 C 147.95 184.6873 144.8077 188.8322 145.3453 191.4044 C 145.7592 193.3842 150.1536 200.3546 147.9065 202.2044 C 147.6776 202.3929 147.1676 202.6431 146.0002 202.209 C 145.9116 202.176 138.6852 198.642 136.7122 197.0214 C 135.203 195.7817 132.474 191.1622 131.3499 189.1154 C 128.241 183.455 127.514 182.1738 127.0802 181.8824 C 125.4598 180.7946 121.4877 182.8733 118.6915 180.9121 C 116.6105 179.4524 117.769 177.041 116.9617 175.1455 C 116.1245 173.1801 113.504 171.9886 113.0955 168.9736 C 112.3849 163.7295 114.9288 160.4265 115.2762 159.701 C 114.2902 158.5792 110.255 156.5505 108.2476 154.7166 C 101.6868 148.7225 101.4788 139.0256 100.6071 134.6199 C 99.60034 135.0938 99.30884 135.4512 98.3457 136.8401 C 98.66675 137.9212 100.2117 142.5747 98.44153 144.7691 C 97.82996 145.5272 97.10059 145.4114 97.00525 145.3915 C 94.30505 144.8286 96.26721 137.8918 96.57007 136.7832 C 95.90381 134.779 95.45251 133.4083 95.07141 132.3231 C 94.46326 139.3331 93.61438 158.1372 106.3568 177.499 C 111.217 184.884 116.6698 190.1448 121.3213 193.7642 C 121.9607 194.2617 134.1302 203.8722 148.636 207.0645 C 147.4626 206.374 146.963 205.9684 147.1787 205.4113 C 147.3271 205.028 147.7157 204.9928 147.821 204.9739 C 148.6736 204.821 151.3387 205.665 152.1527 205.8972 C 153.7374 206.3493 154.7504 206.5994 154.8716 206.5133 C 155.6307 205.9743 152.9646 200.4142 153.6801 198.2188 C 153.965 197.3445 155.3373 195.96 156.0468 196.0906 C 157.8156 196.4163 156.8173 202.0991 157.8754 202.4675 C 158.4158 202.6558 160.6025 200.0816 164.8282 198.4149 C 167.4263 197.3901 168.3781 197.9974 170.3417 200.4376 C 174.1221 205.1357 174.9348 204.6219 180.1298 203.5756 C 188.158 201.9586 190.0448 203.4061 190.3665 203.5764 C 195.6843 200.9388 208.7059 195.2685 219.6639 180.8149 C 225.546 173.0564 234.046 157.9767 233.5297 138.3123 C 233.4175 134.0416 232.8701 128.8806 232.3417 125.7204 C 231.5571 121.0286 232.353 125.8305 231.3297 120.8696 C 230.7054 117.8436 230.9113 119.2092 230.0143 116.8126 C 228.3612 112.3957 225.972 105.7222 219.2535 96.96484 C 216.443 102.1349 215.1654 106.0632 213.0975 106.5767 C 211.9144 106.8704 210.4951 106.2592 210.2899 105.5737 C 209.9103 104.3057 213.1473 101.4301 212.4624 99.47485 C 212.0049 98.16888 207.5575 95.28046 206.6661 94.85333 C 204.4542 93.7934 201.6599 94.20612 200.745 94.46014 C 198.7518 95.01355 198.0791 96.0683 195.8224 96.39392 C 194.1094 96.64111 191.8577 96.61658 187.2863 100.5588 C 182.6713 104.5386 181.0073 105.5281 180.8234 106.1051 C 180.6831 106.5449 181.3169 108.9352 181.8229 109.3027 C 182.1857 109.5662 183.7714 109.5147 184.115 109.3594 C 184.4293 109.2174 187.6354 105.4145 189.9957 106.6689 C 190.0503 106.698 190.3452 106.832 190.4816 107.1672 C 190.6376 107.5507 190.4662 107.9324 190.4265 108.0281 C 189.5616 110.1134 185.6279 110.7305 185.4706 111.1147 C 185.4099 111.2631 185.5903 112.1497 186.9392 113.2303 C 187.6582 113.8063 188.4955 114.3153 188.9507 114.134 C 190.0709 113.6877 190.6715 107.66 191.9777 106.4892 C 192.5861 105.9438 193.6498 106.0557 194.5248 105.1614 C 196.0295 103.6234 197.7399 100.118 199.4532 99.42261 C 199.6923 99.32562 200.153 99.16431 200.7115 99.33154 C 202.7587 99.94427 202.556 102.0348 202.2607 104.0399 C 201.8595 106.7639 200.4718 107.2636 198.7167 108.6873 C 197.4465 109.7177 196.8003 110.0244 198.2484 114.2434 C 199.9834 113.678 204.624 110.4262 205.7056 112.1457 C 206.587 113.5472 203.6395 115.4 202.0123 115.9773 C 198.869 117.0925 199.4968 115.8004 196.6855 117.254 C 193.8583 118.7158 192.632 119.3484 190.3754 119.4843 C 187.2501 119.6724 187.2733 119.1831 185.2432 118.3452 C 179.4064 115.9363 177.1317 117.9857 175.5853 117.9782 C 174.5439 117.9731 173.9019 117.2515 173.4508 117.1915 C 172.9906 117.1303 172.5388 117.484 170.9943 117.5807 C 171.2218 117.8973 171.9744 118.7594 171.9391 119.5002 C 171.9164 119.9753 171.7451 120.0019 171.6332 120.2644 C 170.9259 121.9238 171.3744 123.6258 170.2151 124.2471 C 168.4679 125.1837 163.6434 121.2867 161.3246 124.9805 C 159.7576 127.4766 160.7365 133.1209 166.2708 130.2236 C 172.1128 127.1652 176.0594 122.8607 179.2733 129.6589 C 180.6328 126.3812 181.5762 124.3487 183.0297 124.3 C 184.1786 124.2616 185.5331 125.887 185.553 125.9366 C 185.5905 126.0303 185.5675 126.1262 185.4899 128.7742 C 191.3593 125.2254 192.863 125.048 194.5769 127.0947 C 196.046 128.8492 195.2294 128.9214 196.5664 129.7817 C 197.618 130.4583 196.8458 129.5877 197.5569 130.7029 C 198.2279 131.7552 197.845 132.183 201.4036 134.9514 C 202.212 135.5803 206.0764 138.4694 206.2461 138.6025 C 211.8121 142.9715 210.984 147.262 213.7357 150.9875 C 214.8619 152.5123 216.4421 152.8811 220.9668 149.0643 C 222.2278 148.0007 224.8691 145.5457 225.8995 143.713 C 226.8804 141.9684 226.316 141.4326 225.6 140.6002 L 219.1537 140.459 C 219.1455 140.4588 219.1436 140.4935 219.0459 140.4534 C 218.9484 140.4133 217.3097 138.8352 216.1492 137.7598 C 214.7826 136.4935 212.0032 134.509 211.1796 131.213 C 210.8005 129.6958 211.1688 128.2346 212.1561 127.869 C 214.0032 127.1851 217.3528 130.7254 220.0112 132.7202 C 224.7529 136.2781 225.3151 133.4365 227.9838 136.3867 C 228.5997 135.3574 229.5082 132.979 230.6434 133.1143 C 232.0115 133.2774 234.016 139.4456 232.5249 139.5855 C 231.6031 139.672 231.2015 136.8197 230.4858 135.0643 C 229.7555 136.1562 229.0175 138.0694 228.0215 138.1399 C 227.3604 138.1867 226.9808 137.5951 226.3317 136.9425 C 224.991 135.5946 223.6244 137.1315 219.3738 134.1306 C 216.2031 131.8921 213.5183 128.7662 212.702 129.4297 C 212.2732 129.7784 212.9608 131.9121 213.8381 133.2767 C 214.9175 134.9557 214.0854 133.5947 219.6526 139.0095 L 225.8851 139.1442 C 225.887 139.1443 225.9138 139.1564 225.9813 139.181 C 226.1553 139.2446 229.1909 140.6777 227.348 144.2081 C 225.7029 147.3597 220.8987 151.3152 218.9626 152.4579 C 217.01 153.6104 215.4723 153.8291 214.1692 153.2518 C 211.5963 152.112 211.0201 149.1326 209.205 144.8706 C 207.2915 140.3777 203.1106 138.0206 202.4132 137.5462 C 197.2916 134.0621 196.8217 132.9158 196.2177 131.5004 C 196.2053 131.7127 196.1875 131.3972 196.1875 133.0438 C 202.9082 140.0154 203.9332 141.1705 205.0983 144.2717 C 206.1984 147.2001 205.2773 147.1794 211.0156 151.3962 C 214.0858 153.6523 214.5549 154.3354 214.6223 154.963 C 214.886 157.4205 209.5516 159.9929 207.5099 161.1483 C 206.819 161.5392 204.6498 162.5952 202.4701 164.3181 C 200.3723 165.9763 198.691 168.5638 198.6649 171.3804 C 199.4022 170.4974 202.2689 165.8693 204.777 164.8768 C 205.4199 164.6224 206.5538 164.4283 207.2047 164.9969 C 208.0073 165.698 207.9169 167.1676 206.4154 169.54 C 203.6129 173.9683 200.4265 174.6667 199.8551 174.5353 C 199.6953 174.4984 199.7739 174.573 199.2252 174.1799 C 196.5811 177.7952 196.0229 181.6427 196.002 181.7124 C 195.7456 182.5662 192.2483 188.3926 191.7915 188.9304 C 189.2681 191.9011 186.0098 189.7609 185.2511 189.1727 C 182.9874 187.4178 183.3048 186.51 183.5145 181.9716 C 181.2963 177.6948 180.9426 177.0336 180.9283 176.9857 C 180.8433 176.7006 180.774 173.7312 180.8639 172.2032 C 180.9243 171.1757 181.447 167.2979 181.3203 166.8361 C 181.1412 166.1836 179.541 164.7648 179.5012 163.984 C 179.4606 163.1844 180.7952 161.5223 180.9241 160.1456 C 180.6814 159.38 179.5269 157.4403 176.6415 155.9105 C 173.3915 158.0479 170.2848 160.8696 166.4064 157.8608 C 161.0764 153.726 160.4186 148.5904 160.8069 143.2496 C 161.0065 140.5048 162.6869 134.8276 168.4313 132.8441 C 173.4219 131.1208 176.7258 132.4183 181.739 133.8745 C 183.2236 132.1907 183.3179 131.9437 184.7198 131.7509 C 188.2905 131.26 189.7861 132.3378 194.239 129.5484 C 193.7437 128.4398 193.1805 127.7435 192.9935 127.6426 C 191.217 126.6849 186.6647 130.0261 185.5336 130.4384 C 184.5654 130.7912 183.8988 130.4206 183.8093 130.2955 C 183.5928 129.9928 184.1505 127.3791 183.9147 126.656 C 183.7505 126.1527 183.3135 125.8843 183.1093 125.7291 C 181.6235 127.0519 181.2227 129.1715 180.2312 131.2394 C 180.0092 131.7025 179.725 132.3261 179.1429 132.3298 C 177.4779 132.3405 178.0646 127.2224 174.7974 127.6999 C 171.9669 128.1135 167.2605 131.9474 165.1703 132.4308 C 164.3783 132.614 160.5043 133.0001 159.3483 129.4682 C 158.261 126.1462 160.5922 122.7392 162.387 122.0405 C 164.8494 121.082 168.9015 123.1446 169.4246 122.795 C 169.6523 122.6428 170.1187 119.9698 170.1958 119.4581 C 169.6023 117.6943 166.7554 115.4939 167.9325 111.8892 C 167.9675 111.7821 168.192 111.003 168.8231 110.7979 C 169.6038 110.5441 170.3065 111.3387 170.4072 111.4422 C 172.6486 113.7442 171.3655 115.4818 171.0447 116.0624 C 172.0148 115.9535 172.0081 115.8697 172.397 115.7037 C 171.3256 112.1188 170.1267 107.7729 171.6638 106.778 C 172.2091 106.4251 172.8358 106.6523 172.8457 106.6561 C 173.4851 106.9066 173.9331 107.9487 174.5646 108.8783 C 175.9755 110.9553 177.4333 112.1768 177.5236 112.8536 C 177.6035 113.4531 176.6838 114.9084 175.9127 115.6644 C 175.0519 116.5082 174.8806 116.1348 175.0123 116.3629 C 175.2466 116.7687 177.6028 115.5236 179.5179 115.5174 C 183.6836 115.504 186.8685 117.8977 189.0564 118.0384 C 192.1517 118.2374 195.9979 115.7817 196.7733 115.235 C 196.0162 112.0452 195.384 110.6359 196.4257 108.9936 C 197.9349 106.6141 199.8715 106.6396 200.5806 104.6912 C 200.9069 103.7947 201.2322 101.1192 200.33 100.8661 C 199.505 100.6348 198.6261 102.3953 196.2003 105.5156 C 194.2594 108.0121 193.9967 107.0348 193.1708 107.5492 C 191.7177 108.4542 191.9601 114.6863 189.5764 115.531 C 188.2006 116.0186 186.5518 114.8191 186.1832 114.552 C 183.7441 112.7843 183.9526 111.4197 183.7343 111.223 C 183.2594 110.7955 179.8811 111.6268 179.381 107.4649 C 179.0562 104.7614 179.5233 104.8514 183.1284 102.0469 C 186.3337 99.55334 189.6511 95.94653 193.7332 95.07587 C 195.427 94.7146 195.2115 95.22388 197.2562 94.29651 C 199.5894 93.23828 200.2251 92.73615 200.6715 92.64801 C 200.7552 92.63147 205.3478 92.62329 205.4734 92.64807 C 206.0834 92.76843 209.2092 94.46222 211.2059 96.04254 C 213.1279 97.56378 214.3644 98.75769 214.1682 100.38 C 213.9612 102.0917 212.4229 103.6959 211.9814 105.1447 C 213.5992 105.2715 214.1514 103.7498 217.0013 98.04718 C 217.5559 96.93756 218.3528 95.01923 219.2909 95.1134 C 220.3937 95.22412 224.2551 101.4017 224.9059 102.4473 C 233.678 116.5396 234.7108 130.108 234.8485 134.5922 C 235.1842 145.528 234.7346 150.9014 232.2816 159.0752 C 230.777 164.0889 228.3009 170.2175 224.5038 176.4064 C 216.48 189.4842 205.215 197.019 201.9928 199.1 C 196.8372 202.4297 191.9468 204.4836 189.5627 206.0402 C 186.8749 207.7952 182.9131 209.908 175.1042 211.2474 C 170.9269 211.964 159.1243 212.6379 160.9735 209.5425 C 161.5707 208.5429 164.504 208.6972 169.3334 208.3058 C 175.7667 207.7845 181.3353 206.7697 187.7814 204.3835 C 181.0137 204.4579 178.0846 206.2078 174.8303 205.6772 C 171.0369 205.0589 169.3781 201.0129 167.3115 199.5224 C 165.8123 199.5106 163.2231 200.7672 161.1251 202.2145 C 160.1267 202.9033 158.6892 204.1863 158.0009 204.1744 C 157.4718 204.1653 156.8116 203.4974 156.6415 203.314 C 155.1775 201.736 156.0398 200.892 155.5662 197.9796 C 153.8448 200.2693 158.0715 205.7565 156.2052 207.5782 C 155.7567 208.0159 154.9965 208.1177 153.8479 207.9719 C 153.8916 208.0159 154.3159 208.249 154.2323 208.6973 C 153.8519 210.7373 138.8481 207.2247 124.9464 198.1508 C 115.8716 192.2274 110.8018 186.1001 108.0497 182.5419 C 102.9452 175.942 99.73279 169.5203 97.60132 163.6625 C 96.71118 161.2162 92.10449 148.3955 93.47961 133.1124 C 94.30334 123.9586 93.57654 127.6005 94.23083 120.7524 C 94.55957 117.312 96.10291 111.746 99.67358 105.4936 C 100.6309 103.8176 102.573 100.8624 104.365 98.91302 Z M 170.2196 114.1705 C 170.2115 113.7735 169.9535 113.3041 169.3168 112.5831 C 169.2855 112.7267 168.9005 113.593 169.6227 115.3233 C 169.9857 114.892 170.2277 114.5675 170.2196 114.1705 Z M 203.0684 113.7445 C 203.0608 113.7298 201.3789 114.5312 201.3855 114.5464 C 201.412 114.6072 203.0912 113.7887 203.0684 113.7445 Z M 186.9261 108.8643 C 186.9677 108.9494 188.1324 108.2676 188.2812 108.1741 C 188.1086 108.2518 186.9025 108.8157 186.9261 108.8643 Z M 183.2574 207.5044 C 183.2351 207.4308 183.4065 207.5523 179.0547 208.5154 C 176.1642 209.155 174.4877 209.3753 173.0306 209.5424 C 168.6754 210.0417 165.5154 210.0131 163.0952 210.2851 C 166.0667 210.4594 170.7819 210.2107 172.7966 209.9844 C 174.8121 209.758 177.2461 209.2386 179.0201 208.7856 C 180.1639 208.4935 183.2803 207.5797 183.2574 207.5044 Z M 97.24377 142.4017 C 97.25403 143.1912 97.30615 143.6867 97.30969 143.7258 C 97.48499 143.3969 98.01746 142.4967 97.42981 139.314 C 97.26526 140.5289 97.23352 141.6123 97.24377 142.4017 Z M 147.8942 80.83136 C 146.6702 80.06903 145.2257 80.15576 144.7463 80.94562 C 144.4104 81.49908 144.6635 82.35522 144.7711 82.43182 C 145.0507 82.6308 146.9683 81.92749 147.8942 80.83136 Z M 175.8511 113.1057 C 175.7832 112.5071 174.5702 111.9625 172.6443 108.7347 C 172.5663 110.9219 173.1776 113.6226 173.9708 114.8251 C 175.8334 114.2556 175.8588 113.1732 175.8511 113.1057 Z M 104.0847 101.5266 C 104.0291 101.4895 102.0747 104.3868 101.929 104.6113 C 100.8002 106.3498 100.2905 107.3716 100.2771 107.3971 C 99.53979 108.7953 98.82275 110.3624 98.14136 112.0884 C 97.09961 114.7273 95.75928 118.6735 95.41333 122.1913 C 96.04639 119.9185 96.8147 116.4721 98.8833 111.6899 C 100.1808 108.6902 101.7007 105.824 101.7278 105.7723 C 102.3771 104.5297 102.9635 103.4643 103.0485 103.3127 C 103.9635 101.6793 104.1 101.5368 104.0847 101.5266 Z M 197.8997 167.7086 C 198.2478 166.9441 198.7415 166.116 199.427 165.2297 C 201.3048 162.8022 202.9244 161.9606 207.7753 159.1857 C 213.0447 156.1713 212.8562 155.8632 213.0576 155.2843 C 212.4259 153.7049 208.5262 151.8454 206.0785 149.4246 C 203.5732 146.947 204.457 145.0991 201.7666 141.397 C 199.9347 138.8763 195.8523 134.9553 194.7454 133.6378 C 194.6782 131.7776 194.818 132.556 194.6288 131.4131 C 190.3737 132.6537 194.6847 132.5975 184.196 133.34 C 182.3137 135.5047 182.4192 135.4265 182.2717 135.4674 C 182.2004 135.4872 182.1257 135.4652 182.1244 135.4653 C 181.7852 135.4902 181.5809 135.2381 176.8444 134.0454 C 171.2568 132.6385 164.017 134.6683 162.561 141.2674 C 162.2772 142.5536 161.7002 147.554 163.3101 151.4591 C 164.2565 153.7549 167.0422 157.3976 169.4746 157.641 C 172.4336 157.9371 174.9421 153.9714 177.2714 154.6139 C 178.9667 155.0815 181.7761 158.1095 182.1233 158.7602 C 183.235 160.8439 181.0175 163.038 181.2278 163.8923 C 181.5956 165.3861 183.4333 163.6132 182.5394 170.4182 C 182.1007 173.7583 182.3522 176.2682 182.7008 177.124 C 183.1229 178.1604 184.6095 180.2493 184.694 180.516 C 184.7637 180.7361 184.7814 184.2386 184.9811 185.7026 C 185.4219 188.9346 188.7802 189.3793 189.9506 188.5629 C 191.0044 187.8278 194.1887 182.1895 194.3951 181.6005 C 195.0698 179.6758 193.6166 181.8741 197.7928 173.6365 C 197.6154 173.1416 196.3912 171.0215 197.8997 167.7086 Z M 199.7415 173.0007 C 199.8483 173.0309 200.6122 173.8235 203.3644 170.9532 C 204.6598 169.6023 205.9943 167.8392 206.192 166.2717 C 203.9561 166.2001 200.3317 171.0585 199.7415 173.0007 Z" fill-rule="evenodd" fill="#151515" fill-opacity="1" stroke="none" stroke-opacity="1" stroke-width="0" stroke-linecap="round" stroke-linejoin="round"/>
<path id="path_99db4b202e91ab088ae2145ced7e8201" d="M 242.2948 86.82318 C 241.7281 87.34363 241.0444 87.81396 240.28 88.216 C 237.9619 89.43524 234.1378 90.07672 234.4884 87.50726 C 234.5631 87.38953 235.1133 86.34015 236.2258 86.88452 C 236.5665 87.05121 236.6051 87.21497 236.7161 87.34399 C 240.8174 86.91113 242.0502 84.35388 242.087 84.19196 C 242.5442 82.18304 239.1703 78.36823 230.6285 79.12524 C 222.9703 79.80402 218.9397 83.65253 218.1042 86.50464 C 217.4482 88.74408 218.201 91.46118 222.4979 93.2829 C 226.5607 95.00531 232.1484 94.78455 232.9255 94.96625 C 233.0486 94.995 233.5347 95.07001 233.5085 95.43469 C 233.424 96.61389 226.0354 95.55933 223.6705 94.91113 C 218.9712 93.62305 213.6361 90.20679 217.4634 84.42944 C 218.3754 83.05267 220.2197 81.01447 223.3234 79.61646 C 227.8809 77.56366 231.5813 77.88391 232.7775 77.87927 C 234.5386 77.87244 240.6227 77.56061 243.2473 81.27698 C 244.6405 83.24963 243.9946 85.26184 242.2948 86.82318 Z" fill-rule="evenodd" fill="#151515" fill-opacity="1" stroke="none" stroke-opacity="1" stroke-width="0" stroke-linecap="round" stroke-linejoin="round"/>
<path id="path_f9500cd70ac3a3eaf2ec6936821f9f6c" d="M 206.3989 74.75336 C 205.7454 74.46411 205.2671 74.1012 205.1128 73.66559 C 204.4299 71.73798 208.8347 68.65485 209.3606 68.64935 C 209.7382 68.64539 210.0209 68.92151 210.1001 69.13544 C 210.1359 69.23199 210.2505 69.51422 209.861 69.99371 C 209.5111 70.42444 206.3743 72.24377 206.4041 73.06537 C 206.4528 74.40704 212.0125 74.2149 212.818 74.47455 C 212.9886 74.52954 213.3633 74.6311 213.3468 74.98279 C 213.3048 75.87939 208.7333 75.78644 206.3989 74.75336 Z" fill-rule="evenodd" fill="#151515" fill-opacity="1" stroke="none" stroke-opacity="1" stroke-width="0" stroke-linecap="round" stroke-linejoin="round"/>
<path id="path_2d1cf6290aee2d16e3c77195d4a01b29" d="M 212.6909 67.51843 C 212.7103 68.72583 211.0465 68.94543 210.6859 68.16339 L 210.6725 68.13672 C 210.4786 67.66425 211.0479 66.50012 211.9388 66.61322 C 212.5251 66.68762 212.6863 67.22559 212.6909 67.51843 Z" fill-rule="evenodd" fill="#151515" fill-opacity="1" stroke="none" stroke-opacity="1" stroke-width="0" stroke-linecap="round" stroke-linejoin="round"/>
<path id="path_8381780e9c0713202206517faca844c7" d="M 241.4537 115.7871 C 241.4525 115.7828 241.4481 115.8002 240.9663 115.6722 C 240.9575 115.6699 240.0771 115.4156 239.986 115.3878 C 239.1367 115.1292 238.0262 114.752 237.4622 114.537 C 236.2883 114.0897 234.8876 113.4581 234.1014 112.8322 C 233.396 112.2704 233.2323 111.8318 233.1692 111.4045 C 232.8037 108.9319 237.2126 107.7914 237.7023 107.7898 C 238.0505 107.7888 238.4493 108.11 238.5035 107.6862 C 238.5786 107.098 237.3137 107.8613 234.7 105.0999 C 234.3411 104.7207 233.8019 104.1261 233.6747 103.3534 C 233.4896 102.2288 234.4222 101.1671 234.9211 100.606 C 234.2496 100.5249 230.2441 99.74866 230.1451 98.01239 C 230.1 97.22064 230.8976 96.57751 231.1163 96.47229 C 232.2374 95.93298 238.5415 96.5069 236.7725 99.69409 C 236.8925 99.75623 237.1339 99.7594 237.2966 100.0735 C 237.9617 101.3569 235.3651 101.9432 235.098 102.8912 C 234.6072 104.6331 239.0316 106.4407 239.3014 106.9119 C 239.5419 107.3319 239.3099 107.3575 239.264 107.4994 C 245.9763 106.2911 252.5739 106.7561 254.7579 107.0557 C 258.1693 107.5236 258.6224 108.7742 258.7852 109.0731 C 258.5593 110.9103 256.8921 110.959 254.2238 111.1638 C 245.1658 111.8591 239.4901 109.663 238.1787 108.7705 C 237.3314 109.3661 234.8677 110.0518 234.7983 110.9418 C 234.6567 112.7581 241.9738 114.7865 242.2164 115.1719 C 242.4495 115.542 242.1198 115.7411 242.1176 115.7457 C 256.8523 115.2964 261.6119 118.0931 261.5851 119.6819 C 261.5685 120.6648 260.5807 121.4056 255.4225 121.0829 C 249.1825 120.6925 242.3879 118.2155 241.2266 116.8706 C 240.3147 117.2874 237.5802 117.7993 237.5013 118.7616 C 237.4392 119.5195 239.9324 121.1597 240.3428 121.416 C 241.6649 122.2418 244.1787 123.3551 244.3889 123.7611 C 244.5894 124.1484 244.3035 124.3337 244.3016 124.3386 C 245.9945 124.8781 247.8561 126.1696 247.8799 127.3055 C 247.8929 127.9314 247.2607 128.781 246.765 128.9127 C 246.3779 129.0156 245.345 128.7676 244.3182 127.7008 C 243.524 126.8757 243.4589 126.2869 243.448 126.259 C 243.3938 126.1198 243.4321 125.9978 243.4205 125.9891 C 243.4153 125.9852 243.4313 125.9392 243.4248 125.9364 C 243.3506 125.9037 243.3422 125.9954 243.3246 125.9514 C 242.4974 127.4557 244.3062 129.8615 245.6155 131.6383 C 246.2159 132.453 246.592 132.8412 246.2512 133.1482 C 245.683 133.6602 244.2241 131.8137 243.4442 130.6752 C 242.7148 129.6102 239.8989 124.4734 243.5618 124.2225 C 238.3629 122.0544 235.506 120.2914 235.9442 118.3781 C 236.4012 116.3826 239.9612 115.8206 240.6356 115.9246 C 241.3994 116.0424 240.804 116.2729 241.3506 115.8073 C 241.3215 115.795 241.4624 115.8174 241.4537 115.7871 Z M 243.3929 116.7634 C 249.4492 119.7827 257.6847 119.962 259.3549 119.5194 C 258.7748 119.093 253.4608 116.2939 243.3929 116.7634 Z M 240.3241 108.4337 C 245.0033 109.9221 247.2809 109.8108 249.3505 109.8088 C 256.0979 109.8022 256.4995 109.2987 256.5603 109.2778 C 252.9937 107.5248 245.0588 107.4237 240.3241 108.4337 Z M 235.9395 99.79785 C 235.9407 99.77502 235.9363 99.74976 235.9244 99.72205 C 235.9226 99.71777 235.5206 99.39673 235.5167 99.39917 C 235.473 99.42737 235.636 99.99951 235.6407 100.0022 C 235.6434 100.0037 235.9308 99.95789 235.9395 99.79785 Z M 232.8409 98.20514 C 234.3975 98.83557 234.2374 98.59888 235.2814 99.16907 C 234.7278 98.56482 234.6136 98.40112 234.3529 98.28723 C 233.9767 98.12292 232.8544 98.20459 232.8409 98.20514 Z" fill-rule="evenodd" fill="#151515" fill-opacity="1" stroke="none" stroke-opacity="1" stroke-width="0" stroke-linecap="round" stroke-linejoin="round"/>
<path id="path_639e2e38e5daf6bd5a62c7af55bdadd1" d="M 194.1354 64.59595 C 194.1486 65.08069 194.2484 65.49298 194.4949 65.74121 C 195.5 66.75366 198.4637 65.10229 198.8921 65.73273 C 199.4967 66.62256 196.6615 67.6264 194.6084 67.0528 C 191.9939 66.32233 192.9585 63.2674 193.058 61.50311 C 189.5884 63.17767 188.0476 66.19489 187.3837 65.58582 C 187.083 65.31006 187.5083 64.83923 187.9921 64.18231 C 187.3218 64.72858 186.9519 65.08875 186.6765 64.82178 C 186.3473 64.50256 186.7471 64.27747 188.1158 62.60181 C 187.3228 63.07684 182.5199 66.00769 179.8854 59.8869 C 176.2671 63.1593 175.5034 63.86115 174.6722 63.76117 C 173.9242 63.6712 173.1602 62.61511 173.0858 62.27539 C 172.9741 61.76508 174.5706 55.73737 175.5001 55.33691 C 175.8606 55.18164 176.6909 55.39984 176.8522 55.91827 C 177.0986 56.71063 174.6921 59.17908 174.9933 62.08203 C 176.886 60.99341 179.3596 58.09985 180.2294 58.29144 C 181.1877 58.50256 180.9753 60.83313 182.8575 62.18536 C 184.6998 63.50885 187.6052 61.54517 188.1438 61.61804 C 188.6317 61.68408 188.5488 61.96442 188.5776 62.00751 C 190.864 58.96405 191.1655 57.99072 191.8575 57.98425 C 192.1614 57.98138 192.7089 58.36261 192.7488 58.69452 C 192.7876 59.01807 192.3601 59.52997 191.2407 60.95276 C 191.8915 60.52069 193.0134 59.74121 193.3237 59.7453 C 193.6174 59.74915 194.6638 60.508 194.7434 60.75037 C 194.837 61.03522 194.0959 63.1416 194.1354 64.59595 Z" fill-rule="evenodd" fill="#151515" fill-opacity="1" stroke="none" stroke-opacity="1" stroke-width="0" stroke-linecap="round" stroke-linejoin="round"/>
<path id="path_495f7c36adfa69fbcea41e4b21fc4e2b" d="M 187.3514 66.14484 C 187.3483 66.28131 187.3132 66.39441 187.243 66.45715 C 187.0198 66.6568 185.8632 66.49438 185.881 65.2478 C 186.7832 64.52252 187.3655 65.55334 187.3514 66.14484 Z" fill-rule="evenodd" fill="#151515" fill-opacity="1" stroke="none" stroke-opacity="1" stroke-width="0" stroke-linecap="round" stroke-linejoin="round"/>
<path id="path_466eeafd7a36bb415942cf1d69346ab1" d="M 153.6658 66.80615 C 153.1796 64.82495 153.1145 58.47296 153.5948 55.45221 C 153.4406 55.51599 153.634 55.66705 153.125 55.58295 C 153.0532 55.57111 149.8694 54.07776 149.9459 53.00769 C 149.9846 52.4657 150.7286 52.06769 151.0822 52.07031 C 151.7937 52.07562 153.2487 53.66528 153.2639 53.68396 C 153.6958 54.21246 153.4242 54.18469 153.4174 54.31067 C 152.0005 54.48608 151.9187 53.01776 151.5 53.48914 C 151.2006 53.82629 152.1653 53.77368 153.5881 55.15326 C 154.1876 53.00677 154.1709 48.06506 159.5713 42.99323 C 163.1425 39.63928 167.8298 38.57758 169.8962 39.80133 C 173.4054 41.87958 170.4496 48.13965 168.8732 50.54858 C 164.2789 57.56897 159.7881 56.85687 158.309 56.92273 C 168.9224 61.72296 171.9674 59.97473 172.442 61.0528 C 172.7714 61.80078 172.3778 63.82117 157.458 57.84192 C 156.2106 62.2796 156.0034 67.03595 155.3597 67.49432 C 154.9512 67.78528 154.0931 67.54938 153.8997 67.36517 C 153.8134 67.28302 153.7352 67.08917 153.6658 66.80615 Z M 157.3031 56.17773 C 157.2957 56.10071 157.2694 56.05017 157.2167 56.05359 C 156.9296 56.07214 156.9606 56.44623 156.9607 56.46338 C 156.9608 56.47406 157.0472 56.83936 157.0763 56.84802 C 157.1793 56.87885 157.3256 56.40894 157.3031 56.17773 Z M 154.7197 62.44543 C 154.7384 62.78595 154.7609 63.1225 154.7886 63.45209 C 155.9976 59.2345 155.8971 58.70355 156.5962 57.21411 C 155.1078 56.80719 154.1759 55.64807 155.6935 55.96277 C 155.504 55.8457 154.7069 55.51068 154.9122 55.09796 C 155.1195 54.68121 155.4761 55.11182 156.7465 55.20654 C 156.8359 54.98444 156.9553 54.89972 157.6677 52.1745 C 157.7317 51.92975 158.7281 47.91986 158.8174 47.57281 C 159.2852 45.75415 159.5637 44.84192 159.6666 44.48663 C 154.869 49.36462 154.8861 54.74573 154.7157 55.24371 C 154.5559 55.71082 154.3888 55.69678 154.356 55.7326 C 154.6416 57.48346 154.589 60.06183 154.7197 62.44543 Z M 158.0107 55.43463 C 160.9218 55.58081 164.045 54.86322 167.1632 50.82648 C 170.184 46.91583 170.6858 42.61768 169.2975 41.31 C 168.2338 40.30811 164.3977 40.65527 160.7 43.55591 C 160.7053 43.55798 161.0543 43.57404 161.2607 43.87354 C 161.436 44.12781 161.5214 44.50128 160.8928 46.08466 C 159.2885 50.12634 158.1533 54.48865 158.0107 55.43463 Z" fill-rule="evenodd" fill="#151515" fill-opacity="1" stroke="none" stroke-opacity="1" stroke-width="0" stroke-linecap="round" stroke-linejoin="round"/>
<linearGradient x1="0" y1="0" x2="1" y2="0" gradientUnits="userSpaceOnUse" id="ss_lineargradient_113856">
<stop offset="0" stop-color="#A10000" stop-opacity="1"/>
<stop offset="0.3914729" stop-color="#DE2121" stop-opacity="1"/>
<stop offset="0.755814" stop-color="#FFFF30" stop-opacity="1"/>
<stop offset="1" stop-color="#FFFC43" stop-opacity="1"/>
</linearGradient>
<linearGradient xlink:href="#ss_lineargradient_113856" gradientTransform="matrix(-113.9519 20.09281 26.19875 148.5806 136.7189 28.73335)" id="ss_lineargradient_113857"/>
<path id="path_bcb5d1538bfaa630402d7e3255500b41" d="M 94.71899 188.3757 C 96.19357 188.1232 96.91428 187.8495 97.487 187.3242 L 98.06894 186.7905 L 97.78757 186.0869 C 97.30838 184.8884 96.82962 184.6191 94.98187 184.5087 C 92.78738 184.3777 91.85803 183.7886 91.64346 182.3923 C 91.56906 181.9081 91.58179 181.8733 91.71924 182.1845 C 91.81012 182.3902 91.91748 182.5586 91.95786 182.5586 C 92.22525 182.5586 92.55511 178.5892 92.5773 175.1031 C 92.58133 174.4753 92.28043 174.0714 91.509 173.669 L 90.98157 173.3939 L 91.44421 173.4661 C 91.79144 173.5203 91.95288 173.4504 92.09134 173.1862 C 92.76697 171.8966 95.14709 169.1376 98.70483 165.52 C 102.1758 161.9907 102.9805 161.0761 104.0437 159.4526 C 105.5997 157.0766 106.5605 155.4263 107.2761 153.9004 C 107.5805 153.2513 107.8322 152.7647 107.8355 152.8189 C 107.8438 152.9551 107.2672 154.5808 106.9419 155.3384 C 106.7947 155.6813 106.7086 155.9618 106.7505 155.9618 C 106.7923 155.9618 107.2979 155.2728 107.8739 154.4308 C 109.3299 152.3024 110.3929 151.2074 112.1913 149.9837 C 113.9855 148.7628 115.3864 147.6512 115.8087 147.1135 C 115.9716 146.9059 116.4419 145.8734 116.8537 144.8192 C 117.8794 142.1931 120.2634 137.5103 120.5746 137.5103 C 120.6085 137.5103 120.5132 137.7908 120.3629 138.1337 C 119.6491 139.7612 119.1359 141.0555 119.1849 141.1046 C 119.2794 141.1992 121.9268 137.9193 123.2574 136.0592 C 123.962 135.0741 124.901 133.6493 125.344 132.8931 C 126.2375 131.368 127.6063 128.4265 127.6075 128.0289 C 127.6079 127.8884 127.2363 127.4067 126.7816 126.9585 C 126.3269 126.5103 125.9835 126.115 126.0184 126.08 C 126.0533 126.0451 126.5307 126.3771 127.0791 126.818 C 128.6406 128.0733 129.7133 128.6484 131.9387 129.4235 C 133.9681 130.1303 136.0067 131.0709 136.6612 131.6024 C 136.8439 131.7507 136.5449 131.6544 135.9968 131.3883 C 134.4829 130.6533 134.0512 130.5957 135.1528 131.2755 C 136.3642 132.0231 137.8312 133.1517 138.4699 133.8274 C 138.9308 134.315 138.9931 134.3319 140.0479 134.2548 L 141.1461 134.1745 L 139.775 134.5947 C 138.0846 135.1127 136.9566 135.739 135.4814 136.9788 C 134.0492 138.1827 132.7288 139.7544 131.7361 141.4371 C 130.8453 142.9472 128.8938 147.765 128.5205 149.3758 C 128.093 151.2207 126.9707 154.7265 126.1186 156.8792 C 125.3743 158.7594 124.8075 159.9977 124.7911 159.7794 C 124.7875 159.7306 125.1947 158.4642 125.696 156.9653 C 126.1974 155.4664 126.5819 154.2143 126.5506 154.1829 C 126.5192 154.1515 126.3596 154.4828 126.1959 154.9191 C 125.4469 156.9158 124.2461 158.8581 122.782 160.441 L 122.2521 161.0139 L 122.7019 161.3728 C 123.1474 161.7283 123.7847 162.578 123.7868 162.8193 C 123.7874 162.8881 123.5075 162.6335 123.1649 162.2536 C 122.0727 161.0423 120.7871 160.7676 119.9818 161.5736 C 119.7296 161.8259 119.4922 162.1258 119.4542 162.24 C 119.4161 162.3543 118.8156 162.6603 118.1195 162.9201 C 117.4235 163.18 116.5892 163.5947 116.2655 163.8418 C 115.7483 164.2366 115.6931 164.3475 115.8102 164.7562 C 116.061 165.6315 116.5947 166.6835 117.2095 167.5148 L 117.8243 168.3459 L 116.9723 167.4472 C 116.5038 166.9529 115.8955 166.1497 115.6206 165.6622 C 115.0526 164.655 114.9813 164.6573 113.8067 165.7193 C 112.8636 166.5719 112.9243 166.9118 114.3363 168.6896 C 116.803 171.7952 119.6005 174.333 122.1778 175.8027 L 123.4616 176.5349 L 122.4204 176.6362 C 121.8478 176.692 119.3611 176.9281 116.8944 177.1609 C 114.4277 177.3938 110.6529 177.7561 108.506 177.966 L 104.6024 178.3479 L 107.1771 178.4576 C 108.5931 178.518 115.3081 178.5865 122.0992 178.6098 L 134.4467 178.6522 L 134.767 178.2571 C 135.1896 177.7361 135.3315 177.1231 135.1486 176.6097 C 135.0329 176.285 134.6662 176.057 133.4871 175.5766 C 131.3809 174.7186 129.9961 173.6836 129.0451 172.2569 C 128.5945 171.5808 128.735 171.4746 129.2627 172.0924 C 129.533 172.4089 129.7573 172.602 129.761 172.5215 C 129.7647 172.441 129.8874 171.6219 130.0337 170.7012 C 130.2958 169.0509 130.2945 169.0149 129.934 168.1445 C 129.6241 167.3962 129.5858 167.0874 129.683 166.1192 C 129.7931 165.022 129.7789 164.9566 129.3259 164.4643 C 129.0664 164.1824 128.4804 163.7986 128.0236 163.6114 C 127.3203 163.3232 127.2821 163.2872 127.7744 163.3766 C 128.0942 163.4347 128.5577 163.5853 128.8044 163.7115 C 129.0511 163.8376 129.2908 163.9408 129.3372 163.9408 C 129.3835 163.9408 129.5817 163.3985 129.7776 162.7356 C 130.2078 161.2802 131.2851 159.0612 132.2662 157.61 C 132.6628 157.0235 133.8886 155.6083 134.9903 154.4651 C 136.092 153.3219 137.4751 151.8259 138.0639 151.1405 C 139.4002 149.5849 142.7869 145.3259 142.9542 144.9906 C 143.0227 144.8535 142.2778 145.5641 141.2989 146.5698 C 140.3201 147.5755 139.6164 148.2113 139.7352 147.9828 C 140.513 146.4865 143.7077 143.2461 146.1441 141.4822 C 147.9994 140.1391 149.6127 138.6374 150.2233 137.6855 C 150.5884 137.1164 150.6973 136.7488 150.6973 136.0864 C 150.6973 134.4158 149.075 129.8456 147.1786 126.1741 C 146.6197 125.0919 146.1357 124.2333 146.103 124.266 C 146.0703 124.2988 146.2664 124.8666 146.5389 125.5278 C 147.4328 127.6971 148.7243 131.9586 148.3755 131.5876 C 148.3006 131.508 147.8885 130.672 147.4598 129.7297 C 145.6663 125.7885 142.58 120.6918 139.3542 116.3441 C 138.2878 114.9068 137.781 114.3835 136.8415 113.7492 C 135.27 112.6884 132.2971 110.9331 130.7889 110.1757 C 130.1171 109.8383 129.5998 109.5301 129.6391 109.4907 C 129.6784 109.4514 130.3526 109.6363 131.1372 109.9017 L 132.5639 110.3844 L 132.7399 109.9424 C 132.8366 109.6994 132.9861 109.1756 133.0718 108.7784 C 133.2214 108.0857 133.2131 108.0604 132.8681 108.1587 C 131.0527 108.6763 127.8313 109.1138 126.1964 109.0648 C 125.6232 109.0476 125.6688 109.0246 126.5287 108.8979 C 130.4613 108.318 132.2066 107.8421 134.6279 106.6897 C 136.1 105.989 138.4682 104.4328 139.5681 103.4433 L 140.3156 102.7707 L 139.0698 103.3434 C 137.4352 104.0949 133.4221 104.8386 133.4221 104.3901 C 133.4221 103.9335 133.9914 102.3776 134.3541 101.8427 C 134.5829 101.5053 134.7343 101.1361 134.6907 101.0222 C 134.647 100.9084 134.2555 100.7618 133.8206 100.6965 C 132.5012 100.4986 131.0656 99.98479 130.0493 99.34688 C 129.5189 99.01402 129.1168 98.70985 129.1556 98.67097 C 129.1945 98.63213 129.6283 98.76308 130.1199 98.96199 C 131.8361 99.65654 133.9998 99.9944 134.5194 99.64891 C 134.6363 99.57112 134.7358 98.43739 134.7933 96.52773 C 134.889 93.35402 134.9689 92.99217 135.8348 91.80992 C 136.064 91.49699 136.3956 90.78636 136.5716 90.23073 C 136.7477 89.67509 136.8959 89.38512 136.9011 89.58635 C 136.9152 90.14091 136.5669 91.65694 136.3092 92.16197 C 136.1001 92.57201 136.112 92.63191 136.4495 92.86845 C 137.5327 93.62773 139.2098 92.86076 141.3953 90.60655 C 142.8208 89.13618 143.0269 88.842 143.528 87.56148 C 143.8331 86.78185 144.1361 86.17702 144.2015 86.21748 C 144.2668 86.25786 144.5031 85.95619 144.7264 85.54704 C 145.0768 84.90508 145.0984 84.78157 144.8835 84.64555 C 144.678 84.51564 144.6926 84.4875 144.9666 84.48491 C 145.5697 84.47911 146.3259 83.86568 146.7108 83.06984 C 147.0355 82.39861 147.0754 82.11696 146.9955 81.06007 C 146.927 80.15315 146.9714 79.65581 147.1648 79.16307 C 147.3883 78.5937 147.3942 78.42805 147.2046 78.03984 C 147.0823 77.78935 146.9398 77.17332 146.888 76.67082 C 146.8024 75.84001 146.7373 75.72069 146.1709 75.35469 C 145.3768 74.84157 145.3501 74.26805 146.0463 72.68065 C 146.3204 72.05574 146.5446 71.46941 146.5446 71.37773 C 146.5446 71.12462 145.6598 70.98402 145.1906 71.16255 C 144.6507 71.368 144.2596 71.98149 144.0278 72.98643 L 143.8412 73.79512 L 142.8526 73.48726 C 142.3089 73.31786 141.6192 73.17934 141.32 73.17934 C 140.7988 73.17934 140.7716 73.14708 140.6704 72.4081 C 140.6123 71.98393 140.5572 71.21718 140.5478 70.70427 C 140.5323 69.84987 140.5183 69.81694 140.3817 70.31187 C 139.9367 71.9236 139.9115 71.94856 140.0031 70.6859 C 140.0529 70.0002 140.1942 68.74654 140.3171 67.89998 C 140.4638 66.88985 140.4888 66.17992 140.3899 65.83461 C 140.2007 65.17455 139.5098 64.43694 138.6813 64.01057 C 138.0285 63.67458 135.3478 63.12502 135.1024 63.27681 C 134.8112 63.45692 135.3073 61.89668 135.9268 60.68419 C 136.2851 59.98311 136.5782 59.29405 136.5782 59.15297 C 136.5782 58.81355 137.6846 58.50502 139.0977 58.45036 C 140.3055 58.40367 141.1131 58.08138 141.4091 57.52785 C 141.5589 57.24776 141.5351 56.985 141.2961 56.28133 C 141.0029 55.41814 141.0029 55.37331 141.2969 54.87523 C 141.5945 54.37102 141.5937 54.35384 141.2551 54.015 L 140.9096 53.66927 L 141.4228 53.35698 C 141.8988 53.06731 141.9289 52.99377 141.8395 52.34113 C 141.7865 51.95416 141.7023 51.52878 141.6523 51.39577 C 141.5927 51.2373 141.7905 51.02328 142.2258 50.77495 C 142.5913 50.56651 142.8902 50.3031 142.8902 50.18958 C 142.8902 50.07605 142.3241 49.46997 141.632 48.84273 C 140.9399 48.21548 140.3082 47.52991 140.2282 47.3192 C 140.1192 47.03241 139.924 46.9196 139.4516 46.87042 C 139.1046 46.83426 139.6106 46.79216 140.5761 46.77678 C 143.0652 46.73717 143.804 46.48064 144.928 45.26567 C 145.8603 44.25792 146.0868 43.73872 145.8609 43.12741 C 145.7233 42.75517 145.3988 42.66866 143.6377 42.53444 C 142.9659 42.48322 142.7493 42.50732 142.9733 42.60834 C 143.709 42.94017 141.759 42.53337 140.6518 42.12401 C 139.8352 41.8221 139.2171 41.44167 138.5583 40.83556 C 137.5834 39.93867 136.7204 39.5329 134.4188 38.88939 C 133.3607 38.59355 132.6931 38.53946 129.9892 38.53072 C 128.2381 38.52505 126.8216 38.50426 126.8413 38.48451 C 126.8611 38.46477 127.621 38.32622 128.5301 38.17662 C 130.0797 37.92165 132.3546 37.92583 134.0035 38.18671 C 134.3287 38.23816 134.2422 38.17586 133.7543 38.00735 C 132.7644 37.66539 129.1897 37.51178 127.6914 37.7469 C 123.7694 38.3623 120.8518 41.70149 119.9663 46.5883 C 119.7774 47.63074 119.9742 48.42747 120.5966 49.14006 C 120.753 49.31914 120.7815 49.4072 120.6599 49.3358 C 120.5383 49.2644 120.3034 48.98325 120.138 48.71103 L 119.8372 48.21609 L 118.9057 49.14835 C 117.8841 50.17073 117.6709 50.1848 118.5027 49.17494 C 119.1108 48.43665 118.6703 48.57866 117.9515 49.35262 C 117.3728 49.97578 117.0773 50.58545 116.3747 52.60533 C 115.657 54.66856 114.9619 56.08205 114.2073 57.01213 C 113.6005 57.76015 113.7883 57.8112 114.7327 57.15492 L 115.2288 56.8102 L 114.8563 57.33366 C 114.2849 58.1368 112.8855 59.33138 111.6749 60.04973 C 110.2349 60.90404 108.6462 61.49263 106.5126 61.96208 C 105.1672 62.25813 104.9249 62.34911 105.4527 62.36012 C 105.829 62.36794 106.7923 62.26003 107.5934 62.12019 C 109.1454 61.84935 109.6527 61.88216 108.4708 62.1769 C 106.066 62.77657 100.8524 62.84871 98.38516 62.31642 C 96.9664 62.01033 97.39993 62.33946 99.19952 62.93468 C 101.0388 63.54301 103.3051 63.80721 104.923 63.60191 C 105.9699 63.46907 106.1552 63.4778 105.9214 63.64891 C 105.4035 64.02788 102.5251 64.90086 101.7099 64.92619 C 100.9445 64.94997 100.9213 64.96489 101.1362 65.29356 C 101.5116 65.86739 102.6801 66.41304 103.7556 66.51674 L 104.7567 66.61327 L 104.2678 66.93294 C 103.9988 67.10878 103.3288 67.29829 102.7787 67.35411 L 101.7786 67.45555 L 102.3356 67.80772 C 103.3667 68.45961 105.2785 68.43404 106.3195 67.75438 C 106.5329 67.61501 106.7416 67.53502 106.7832 67.57661 C 106.8248 67.61821 106.6127 67.80998 106.312 68.0027 C 106.0112 68.19536 105.825 68.35435 105.898 68.35588 C 106.1873 68.36198 107.1542 67.7755 108.3398 66.87471 C 110.3997 65.3098 110.7335 65.09541 110.5327 65.4662 C 110.4387 65.63997 110.1241 66.00652 109.8335 66.28081 C 109.543 66.55507 108.9235 67.22835 108.4568 67.77687 C 107.5071 68.89339 107.8882 68.60799 109.8952 66.69984 C 110.5223 66.10365 110.9526 65.77827 110.8515 65.97676 C 110.5278 66.61238 107.2282 69.94157 105.2714 71.60704 C 103.2612 73.31786 102.3534 74.44044 101.4944 76.2773 C 100.8238 77.71138 100.7684 78.81389 101.3393 79.36656 L 101.7306 79.74541 L 101.4516 79.18971 C 101.1237 78.53627 101.2008 78.29973 101.5369 78.9283 C 101.8491 79.51213 102.8589 80.06242 104.3634 80.46861 C 106.1747 80.9576 107.9994 81.16414 111.5789 81.28526 C 115.1515 81.4062 114.8064 81.60652 110.9145 81.67091 C 108.8692 81.70476 108.7291 81.72377 109.7517 81.82881 C 110.3912 81.89445 112.0058 81.95747 113.3395 81.96886 C 114.6732 81.98018 116.3224 82.03673 117.0043 82.09441 L 118.244 82.19926 L 118.2572 84.04759 C 118.2645 85.06416 118.4176 86.83098 118.5975 87.9738 C 118.9569 90.2574 118.9785 90.23244 119.2427 87.22578 C 119.351 85.9926 119.3688 85.94426 119.4878 86.56084 C 119.7969 88.16353 119.528 92.57823 119.0446 93.8391 C 118.9839 93.99733 119.0617 94.13258 119.2494 94.19514 C 119.4159 94.25063 119.739 94.44365 119.9674 94.62416 L 120.3826 94.95232 L 119.5782 94.68364 C 118.8098 94.42702 118.7539 94.42967 118.3324 94.7429 C 117.8086 95.13213 117.5418 95.61082 117.2986 96.59776 C 117.1646 97.1414 116.8295 97.63203 115.9757 98.53474 C 115.3468 99.19966 114.4939 100.2672 114.0803 100.9069 C 113.2889 102.1313 111.7518 105.0751 111.8523 105.1741 C 112.1352 105.4526 114.4534 105.8287 116.3961 105.9112 L 118.7216 106.0099 L 117.808 106.2592 C 116.5977 106.5894 114.078 106.5642 112.4095 106.2053 C 111.6786 106.0481 109.2588 105.319 107.0321 104.5849 C 100.6652 102.486 98.28748 102.0104 94.8493 102.1477 C 91.60199 102.2775 89.73575 102.8717 85.93884 104.9851 C 83.47375 106.3572 82.45355 106.6613 80.35065 106.6506 C 78.08191 106.639 75.94244 106.1719 71.53253 104.7253 C 68.46393 103.7186 68.34845 103.6946 66.56369 103.6892 C 65.01379 103.6846 64.52225 103.7532 63.32458 104.141 C 62.548 104.3926 61.61368 104.7466 61.24823 104.9279 L 60.5838 105.2575 L 61.66351 105.1536 C 63.36697 104.9899 65.82373 105.0393 66.90335 105.2591 C 68.60971 105.6065 70.38138 106.5706 72.70969 108.4189 C 73.89734 109.3617 75.3363 110.3531 75.90738 110.6221 C 77.85239 111.5383 80.45886 111.4026 82.17786 110.2957 C 82.54327 110.0604 83.88876 108.8089 85.16779 107.5145 C 88.17966 104.4667 88.96124 104.0105 91.14764 104.0246 C 93.28342 104.0383 94.76218 104.5965 101.2053 107.8209 C 106.7323 110.5869 108.4303 111.246 110.0291 111.246 L 110.7821 111.246 L 111.083 112.3582 C 111.4851 113.8448 112.3346 115.5065 113.198 116.4953 C 113.8476 117.2392 113.8619 117.2743 113.3757 116.9314 C 112.6603 116.4268 111.5342 115.1279 111.135 114.3466 C 110.6611 113.4193 110.6029 113.6944 111.0247 114.8677 C 111.5185 116.2411 112.7752 117.9031 114.0045 118.8088 C 115.1681 119.666 114.9913 119.7968 113.6835 119.0463 C 112.8455 118.5653 111.3298 117.1627 111.3298 116.868 C 111.3298 116.5133 110.955 116.7929 110.7399 117.308 C 110.3611 118.2152 110.4494 118.7476 111.179 119.9584 C 112.0001 121.3206 111.9904 121.4362 110.8344 124.0952 C 109.865 126.3251 109.4456 127.9174 109.0958 130.6949 C 108.3658 136.4926 107.9631 138.4322 106.9174 141.1877 C 106.4091 142.5275 105.5738 144.3257 105.46 144.3257 C 105.4322 144.3257 105.6225 143.6712 105.8828 142.8712 C 106.4323 141.1824 106.9125 139.1848 106.7968 139.069 C 106.6393 138.9114 106.0347 140.1104 105.5892 141.4639 C 105.1419 142.823 105.1162 142.8582 103.6234 144.1528 C 102.7914 144.8743 101.6996 145.8465 101.1972 146.3132 L 100.2836 147.1617 L 101.737 146.3936 C 102.5364 145.9711 103.1905 145.6575 103.1905 145.6967 C 103.1905 145.7359 102.5738 146.2421 101.8201 146.8216 C 101.0664 147.4012 99.13998 149.192 97.53922 150.8012 L 94.62878 153.7269 L 93.47406 156.5482 C 91.78061 160.6857 88.21582 167.7945 87.96188 167.5405 C 87.92117 167.4997 88.2341 166.7762 88.65738 165.9328 C 89.90506 163.4467 90.05096 162.855 88.98206 164.6159 C 88.20618 165.8941 86.59039 168.0783 85.7283 169.0142 C 85.07532 169.7232 85.06839 169.7438 85.3201 170.2308 C 85.46091 170.5033 85.858 170.9646 86.20248 171.2559 C 86.77454 171.7396 86.78564 171.7639 86.33054 171.536 C 85.7037 171.2222 85.15765 170.6411 84.93378 170.0497 C 84.66086 169.3289 84.02966 169.4285 83.49454 170.2769 C 83.25714 170.6532 82.90115 171.0029 82.70343 171.0541 C 82.50571 171.1053 81.87531 171.391 81.30252 171.6891 C 80.72974 171.9872 80.30911 172.1533 80.36786 172.0582 C 80.65179 171.5984 79.49448 172.5715 79.08566 173.1363 C 78.6315 173.7638 78.62473 173.8027 78.8689 174.3874 C 79.20331 175.1884 80.01871 176.4529 80.90637 177.5473 C 81.30338 178.0367 81.51904 178.3733 81.38565 178.2953 C 80.9458 178.0381 79.32315 176.0606 78.73349 175.0631 L 78.15442 174.0835 L 77.48453 174.5691 C 76.69409 175.1421 76.28043 175.6876 76.28256 176.1542 C 76.28741 177.1906 78.9603 180.3325 80.98065 181.6766 C 82.71439 182.8301 84.491 184.3006 85.11606 185.0998 L 85.66385 185.8 L 84.58527 184.8802 C 82.87918 183.4252 82.77695 183.3936 83.89832 184.6684 C 84.47675 185.326 84.90805 185.932 84.85672 186.0151 C 84.80545 186.0982 83.88266 186.2176 82.80621 186.2804 C 81.72974 186.3433 78.53174 186.5726 75.69962 186.79 C 72.86749 187.0074 68.73868 187.3186 66.52451 187.4817 C 64.3103 187.6447 62.59113 187.8368 62.70401 187.9086 C 62.81699 187.9803 64.32953 188.042 66.06537 188.0457 C 67.80121 188.0494 74.15482 188.161 80.18454 188.2938 C 92.17755 188.5578 93.60809 188.5659 94.71899 188.3757 Z M 140.547 82.23888 L 140.3579 81.74019 L 140.1366 82.23888 C 139.8486 82.88783 139.8488 82.71254 140.1375 81.35744 C 140.4103 80.07692 140.6051 77.55177 140.4142 77.77013 C 140.3435 77.85085 140.1856 78.17867 140.0631 78.49864 C 139.8495 79.0569 138.9567 80.49345 138.8235 80.49345 C 138.7881 80.49345 139.0119 79.94606 139.3208 79.27705 C 139.9104 77.99989 140.5648 75.86314 140.5648 75.21474 C 140.5648 74.84422 140.5793 74.84062 141.0631 75.09099 C 141.4076 75.26924 141.5614 75.47252 141.5614 75.74937 C 141.5614 76.47108 141.8761 76.99965 142.4763 77.28606 C 142.9022 77.4893 143.0349 77.63942 142.9531 77.82542 C 142.6774 78.45189 142.7036 79.10139 143.0204 79.4929 C 143.3435 79.8922 143.3432 79.89632 142.9514 80.63387 C 142.735 81.041 142.558 81.53694 142.558 81.73595 C 142.558 82.09911 142.1689 82.52959 141.3953 83.02211 C 140.9351 83.31514 140.9659 83.34361 140.547 82.23888 Z M 114.5493 75.92436 C 114.1033 75.66548 113.527 75.27855 113.2688 75.06453 C 113.0106 74.85051 112.6928 74.67543 112.5628 74.67543 C 112.0888 74.67543 112.349 74.40727 113.3646 73.8492 C 113.9356 73.53545 114.9906 72.87846 115.7092 72.38924 C 116.4277 71.90001 117.0462 71.53041 117.0836 71.56783 C 117.121 71.60524 117.0417 71.72716 116.9074 71.8387 C 116.7166 71.99712 116.7013 72.13869 116.8375 72.48576 C 116.9333 72.73012 117.0511 73.71544 117.0992 74.67543 L 117.1867 76.42082 L 116.2735 76.40788 C 115.5885 76.39827 115.1575 76.27736 114.5493 75.92436 Z M 122.984 58.54897 C 122.4049 58.36729 121.6574 58.2119 121.323 58.20366 L 120.7149 58.18864 L 121.295 58.02223 C 121.6141 57.93068 122.1153 57.89479 122.4087 57.94243 C 122.926 58.02644 122.9527 58.00108 123.2878 57.10487 C 123.6903 56.02812 123.5955 55.53282 122.7679 54.38957 C 122.4904 54.00624 122.3448 53.7429 122.4443 53.80443 C 122.7931 54.02013 122.6193 53.68648 121.985 52.92238 C 121.2177 51.99815 120.964 51.54079 120.964 51.08171 L 120.964 50.73833 L 121.2963 51.07077 C 121.479 51.25363 121.7798 51.40323 121.9648 51.40323 C 122.1741 51.40323 122.3631 51.56636 122.4652 51.83516 C 122.5555 52.07272 123.0802 52.71141 123.6314 53.25447 C 124.4472 54.05824 124.5835 54.14507 124.3645 53.72136 C 124.2166 53.43504 124.1329 53.16356 124.1784 53.11795 C 124.2656 53.03076 124.7655 53.77287 125.5208 55.11058 C 126.1285 56.18697 126.8095 56.42229 127.9921 55.96458 C 128.2608 55.86058 128.2873 55.93425 128.2412 56.65813 L 128.1898 57.46806 L 127.3777 57.58351 C 126.8918 57.65263 126.1914 57.93465 125.6335 58.28575 C 124.545 58.97099 124.3812 58.98726 122.984 58.54897 Z M 76.19794 120.4548 C 76.9422 120.2734 78.16217 119.7784 80.7659 118.6013 C 85.23337 116.5818 88.4494 115.6663 91.78 115.4659 C 93.7114 115.3497 94.24399 115.5115 97.04526 117.0644 C 99.55234 118.4543 101.1228 119.0306 102.7632 119.1625 C 104.9151 119.3355 107.4319 118.5307 109.825 116.9044 C 110.9157 116.1632 111.1392 115.8988 110.3142 116.3258 C 108.8424 117.0874 107.3358 117.4055 105.1838 117.4089 C 103.2306 117.4119 101.6065 116.9712 98.29031 115.5382 C 92.40903 112.9968 91.80652 112.8265 89.8848 113.1626 C 89.20898 113.2808 87.27319 113.715 85.58304 114.1275 C 79.27222 115.6676 79.38113 115.6511 75.53351 115.6504 C 72.06396 115.6498 72.03946 115.6473 70.96555 115.1767 C 70.3717 114.9165 69.61334 114.6229 69.2803 114.5243 C 68.6149 114.3272 68.36948 114.4019 65.40094 115.7039 C 62.52576 116.965 59.59943 117.5537 56.177 117.5595 C 51.95663 117.5666 45.6543 116.4285 40.68439 114.7619 C 39.61533 114.4034 38.74063 114.1341 38.74063 114.1634 C 38.74063 114.1926 39.65631 114.6941 40.77545 115.2777 C 41.89459 115.8613 44.00629 116.984 45.46799 117.7726 C 46.92975 118.5613 48.83582 119.4852 49.70374 119.8258 C 51.15903 120.3969 51.44363 120.4508 53.36288 120.5185 C 54.52237 120.5594 55.99365 120.5067 56.68506 120.3996 C 58.99365 120.0418 63.06332 118.9211 65.40515 117.9981 C 67.8685 117.0272 68.84094 116.787 69.56873 116.9698 C 69.81403 117.0314 70.65955 117.7026 71.44766 118.4614 C 72.23581 119.2201 73.13458 119.9723 73.44501 120.1329 C 74.00916 120.4249 75.57114 120.6075 76.19794 120.4548 Z M 73.60977 100.3432 C 75.12463 99.93559 76.74658 98.78764 77.63657 97.49315 C 78.06097 96.87581 78.10141 96.75121 77.84494 96.85054 C 75.9863 97.57042 74.61688 97.83546 72.70969 97.84438 C 70.42081 97.85509 70.48071 97.87346 65.75363 95.71175 C 60.65262 93.37907 58.27826 92.63893 55.87372 92.63185 C 54.48358 92.62773 53.52994 92.84554 50.39169 93.88393 C 44.86401 95.71284 41.15878 95.50465 36.35638 93.09544 C 35.63889 92.73552 35.02405 92.46883 34.99011 92.50282 C 34.95609 92.53682 35.24414 92.8261 35.63019 93.14565 C 39.51785 96.36372 43.38696 97.73814 47.24271 97.27077 C 49.06366 97.05006 50.65228 96.57603 53.6073 95.37166 C 57.81766 93.65565 58.58981 93.57979 60.71344 94.67336 C 61.47736 95.06673 62.73251 95.84044 63.50256 96.39272 C 68.98785 100.3266 70.8974 101.073 73.60977 100.3432 Z M 142.7279 99.73454 C 143.5104 98.45763 143.7906 97.42271 143.7969 95.78654 C 143.8037 94.01607 143.5601 93.35341 142.4512 92.12508 L 141.8604 91.47069 L 140.9219 92.27916 C 140.4057 92.7238 139.729 93.21648 139.4181 93.37401 L 138.8528 93.66045 L 139.4181 94.08791 C 140.4005 94.83067 141.6926 96.23006 142.058 96.94673 C 142.4939 97.80196 142.6592 99.08015 142.422 99.76134 C 142.1907 100.4252 142.3111 100.4146 142.7279 99.73454 Z M 79.85233 91.98122 C 80.30911 91.81477 81.3779 91.32567 82.22739 90.89433 C 84.37524 89.80373 85.7627 89.53709 88.06256 89.77299 C 89.0285 89.87206 91.24991 90.21458 92.99905 90.53413 C 99.35178 91.69478 99.79208 91.69847 106.032 90.64409 C 110.7943 89.83937 114.0268 89.36476 116.2074 89.14998 C 117.1086 89.06123 117.866 88.96599 117.8907 88.93834 C 117.9464 88.87563 117.6861 86.96376 117.6126 86.89595 C 117.4594 86.75484 111.483 86.28185 107.9079 86.12788 C 103.4034 85.93385 97.55917 86.12544 95.05118 86.54924 C 94.27466 86.6805 92.63016 87.13057 91.39682 87.54951 C 89.97925 88.03099 88.60443 88.37663 87.65939 88.48924 C 86.83716 88.58723 85.6412 88.77321 85.00171 88.90257 C 81.33832 89.64342 78.84677 89.78636 76.55872 89.38707 C 74.19742 88.97499 72.70636 88.37437 70.55408 86.96834 C 67.6416 85.06563 65.77029 84.48219 62.58701 84.4843 C 60.15118 84.48589 57.69092 84.95934 54.78012 85.98659 C 51.43921 87.16563 51.43869 87.1125 54.78937 87.01634 C 60.29233 86.85844 63.27878 87.39766 67.38367 89.29024 C 72.49771 91.64806 74.65884 92.2993 77.33737 92.28978 C 78.53903 92.28551 79.25983 92.19707 79.85233 91.98122 Z M 97.2106 81.22795 C 98.18771 80.97017 99.86804 80.34737 100.0798 80.16444 C 100.1505 80.10347 100.1189 79.66631 100.0098 79.19301 L 99.81128 78.33247 L 97.88803 78.33156 C 95.71872 78.33052 92.59012 77.91206 89.15436 77.16335 C 82.01462 75.60744 80.37146 75.35405 76.61325 75.2296 C 73.64581 75.1313 70.38602 75.38396 68.30783 75.87328 L 67.39423 76.08836 L 69.13837 76.12489 C 76.88327 76.28712 83.19421 77.47847 89.81882 80.02895 C 93.76419 81.5479 95.14731 81.77226 97.2106 81.22795 Z" fill-rule="evenodd" fill="url(#ss_lineargradient_113857)" fill-opacity="1" stroke="none" stroke-opacity="1" stroke-width="0.4409722" stroke-linecap="round" stroke-linejoin="round"/>
</defs>
<g>
<g>
<use xlink:href="#path_ec46cf7276075b76906c6cf2928756d8"/>
</g>
<g>
<use xlink:href="#path_99db4b202e91ab088ae2145ced7e8201"/>
</g>
<g>
<use xlink:href="#path_f9500cd70ac3a3eaf2ec6936821f9f6c"/>
</g>
<g>
<use xlink:href="#path_2d1cf6290aee2d16e3c77195d4a01b29"/>
</g>
<g>
<use xlink:href="#path_8381780e9c0713202206517faca844c7"/>
</g>
<g>
<use xlink:href="#path_639e2e38e5daf6bd5a62c7af55bdadd1"/>
</g>
<g>
<use xlink:href="#path_495f7c36adfa69fbcea41e4b21fc4e2b"/>
</g>
<g>
<use xlink:href="#path_466eeafd7a36bb415942cf1d69346ab1"/>
</g>
</g>
<g>
<use xlink:href="#path_bcb5d1538bfaa630402d7e3255500b41"/>
</g>
</svg>